<svg width="52" height="54" viewBox="0 0 52 54" fill="none" xmlns="http://www.w3.org/2000/svg">
<path d="M17.8339 0H16.0505V1.86207H17.8339V0Z" fill="black"/>
<path d="M21.4008 0H19.6174V1.86207H21.4008V0Z" fill="black"/>
<path d="M23.184 0H21.4006V1.86207H23.184V0Z" fill="black"/>
<path d="M24.9675 0H23.1841V1.86207H24.9675V0Z" fill="black"/>
<path d="M30.3176 0H28.5342V1.86207H30.3176V0Z" fill="black"/>
<path d="M32.101 0H30.3176V1.86207H32.101V0Z" fill="black"/>
<path d="M33.8842 0H32.1008V1.86207H33.8842V0Z" fill="black"/>
<path d="M35.6679 0H33.8845V1.86207H35.6679V0Z" fill="black"/>
<path d="M19.6174 1.86182H17.834V3.72388H19.6174V1.86182Z" fill="black"/>
<path d="M21.4008 1.86182H19.6174V3.72388H21.4008V1.86182Z" fill="black"/>
<path d="M23.184 1.86182H21.4006V3.72388H23.184V1.86182Z" fill="black"/>
<path d="M24.9675 1.86182H23.1841V3.72388H24.9675V1.86182Z" fill="black"/>
<path d="M26.7509 1.86182H24.9675V3.72388H26.7509V1.86182Z" fill="black"/>
<path d="M28.5341 1.86182H26.7507V3.72388H28.5341V1.86182Z" fill="black"/>
<path d="M33.8842 1.86182H32.1008V3.72388H33.8842V1.86182Z" fill="black"/>
<path d="M37.4511 1.86182H35.6677V3.72388H37.4511V1.86182Z" fill="black"/>
<path d="M17.8339 3.72412H16.0505V5.58619H17.8339V3.72412Z" fill="black"/>
<path d="M19.6174 3.72412H17.834V5.58619H19.6174V3.72412Z" fill="black"/>
<path d="M23.184 3.72412H21.4006V5.58619H23.184V3.72412Z" fill="black"/>
<path d="M24.9675 3.72412H23.1841V5.58619H24.9675V3.72412Z" fill="black"/>
<path d="M30.3176 3.72412H28.5342V5.58619H30.3176V3.72412Z" fill="black"/>
<path d="M32.101 3.72412H30.3176V5.58619H32.101V3.72412Z" fill="black"/>
<path d="M35.6679 3.72412H33.8845V5.58619H35.6679V3.72412Z" fill="black"/>
<path d="M19.6174 5.58594H17.834V7.44801H19.6174V5.58594Z" fill="black"/>
<path d="M23.184 5.58594H21.4006V7.44801H23.184V5.58594Z" fill="black"/>
<path d="M24.9675 5.58594H23.1841V7.44801H24.9675V5.58594Z" fill="black"/>
<path d="M26.7509 5.58594H24.9675V7.44801H26.7509V5.58594Z" fill="black"/>
<path d="M28.5341 5.58594H26.7507V7.44801H28.5341V5.58594Z" fill="black"/>
<path d="M33.8842 5.58594H32.1008V7.44801H33.8842V5.58594Z" fill="black"/>
<path d="M35.6679 5.58594H33.8845V7.44801H35.6679V5.58594Z" fill="black"/>
<path d="M17.8339 7.44824H16.0505V9.31031H17.8339V7.44824Z" fill="black"/>
<path d="M19.6174 7.44824H17.834V9.31031H19.6174V7.44824Z" fill="black"/>
<path d="M21.4008 7.44824H19.6174V9.31031H21.4008V7.44824Z" fill="black"/>
<path d="M23.184 7.44824H21.4006V9.31031H23.184V7.44824Z" fill="black"/>
<path d="M24.9675 7.44824H23.1841V9.31031H24.9675V7.44824Z" fill="black"/>
<path d="M26.7509 7.44824H24.9675V9.31031H26.7509V7.44824Z" fill="black"/>
<path d="M30.3176 7.44824H28.5342V9.31031H30.3176V7.44824Z" fill="black"/>
<path d="M32.101 7.44824H30.3176V9.31031H32.101V7.44824Z" fill="black"/>
<path d="M33.8842 7.44824H32.1008V9.31031H33.8842V7.44824Z" fill="black"/>
<path d="M16.0505 9.31006H14.2671V11.1721H16.0505V9.31006Z" fill="black"/>
<path d="M21.4008 9.31006H19.6174V11.1721H21.4008V9.31006Z" fill="black"/>
<path d="M23.184 9.31006H21.4006V11.1721H23.184V9.31006Z" fill="black"/>
<path d="M24.9675 9.31006H23.1841V11.1721H24.9675V9.31006Z" fill="black"/>
<path d="M26.7509 9.31006H24.9675V11.1721H26.7509V9.31006Z" fill="black"/>
<path d="M33.8842 9.31006H32.1008V11.1721H33.8842V9.31006Z" fill="black"/>
<path d="M35.6679 9.31006H33.8845V11.1721H35.6679V9.31006Z" fill="black"/>
<path d="M37.4511 9.31006H35.6677V11.1721H37.4511V9.31006Z" fill="black"/>
<path d="M16.0505 11.1729H14.2671V13.0349H16.0505V11.1729Z" fill="black"/>
<path d="M19.6174 11.1729H17.834V13.0349H19.6174V11.1729Z" fill="black"/>
<path d="M23.184 11.1729H21.4006V13.0349H23.184V11.1729Z" fill="black"/>
<path d="M26.7509 11.1729H24.9675V13.0349H26.7509V11.1729Z" fill="black"/>
<path d="M30.3176 11.1729H28.5342V13.0349H30.3176V11.1729Z" fill="black"/>
<path d="M33.8842 11.1729H32.1008V13.0349H33.8842V11.1729Z" fill="black"/>
<path d="M37.4511 11.1729H35.6677V13.0349H37.4511V11.1729Z" fill="black"/>
<path d="M19.6174 13.0342H17.834V14.8962H19.6174V13.0342Z" fill="black"/>
<path d="M21.4008 13.0342H19.6174V14.8962H21.4008V13.0342Z" fill="black"/>
<path d="M23.184 13.0342H21.4006V14.8962H23.184V13.0342Z" fill="black"/>
<path d="M26.7509 13.0342H24.9675V14.8962H26.7509V13.0342Z" fill="black"/>
<path d="M32.101 13.0342H30.3176V14.8962H32.101V13.0342Z" fill="black"/>
<path d="M33.8842 13.0342H32.1008V14.8962H33.8842V13.0342Z" fill="black"/>
<path d="M35.6679 13.0342H33.8845V14.8962H35.6679V13.0342Z" fill="black"/>
<path d="M37.4511 13.0342H35.6677V14.8962H37.4511V13.0342Z" fill="black"/>
<path d="M1.78339 14.8965H0V16.7586H1.78339V14.8965Z" fill="black"/>
<path d="M7.13349 14.8965H5.3501V16.7586H7.13349V14.8965Z" fill="black"/>
<path d="M10.7004 14.8965H8.91699V16.7586H10.7004V14.8965Z" fill="black"/>
<path d="M12.4836 14.8965H10.7002V16.7586H12.4836V14.8965Z" fill="black"/>
<path d="M16.0505 14.8965H14.2671V16.7586H16.0505V14.8965Z" fill="black"/>
<path d="M17.8339 14.8965H16.0505V16.7586H17.8339V14.8965Z" fill="black"/>
<path d="M23.184 14.8965H21.4006V16.7586H23.184V14.8965Z" fill="black"/>
<path d="M28.5341 14.8965H26.7507V16.7586H28.5341V14.8965Z" fill="black"/>
<path d="M33.8842 14.8965H32.1008V16.7586H33.8842V14.8965Z" fill="black"/>
<path d="M35.6679 14.8965H33.8845V16.7586H35.6679V14.8965Z" fill="black"/>
<path d="M39.2346 14.8965H37.4512V16.7586H39.2346V14.8965Z" fill="black"/>
<path d="M42.8012 14.8965H41.0178V16.7586H42.8012V14.8965Z" fill="black"/>
<path d="M14.267 16.7588H12.4836V18.6209H14.267V16.7588Z" fill="black"/>
<path d="M17.8339 16.7588H16.0505V18.6209H17.8339V16.7588Z" fill="black"/>
<path d="M19.6174 16.7588H17.834V18.6209H19.6174V16.7588Z" fill="black"/>
<path d="M23.184 16.7588H21.4006V18.6209H23.184V16.7588Z" fill="black"/>
<path d="M26.7509 16.7588H24.9675V18.6209H26.7509V16.7588Z" fill="black"/>
<path d="M28.5341 16.7588H26.7507V18.6209H28.5341V16.7588Z" fill="black"/>
<path d="M39.2346 16.7588H37.4512V18.6209H39.2346V16.7588Z" fill="black"/>
<path d="M41.018 16.7588H39.2346V18.6209H41.018V16.7588Z" fill="black"/>
<path d="M46.3681 16.7588H44.5847V18.6209H46.3681V16.7588Z" fill="black"/>
<path d="M51.7184 16.7588H49.9351V18.6209H51.7184V16.7588Z" fill="black"/>
<path d="M1.78339 18.6206H0V20.4827H1.78339V18.6206Z" fill="black"/>
<path d="M7.13349 18.6206H5.3501V20.4827H7.13349V18.6206Z" fill="black"/>
<path d="M10.7004 18.6206H8.91699V20.4827H10.7004V18.6206Z" fill="black"/>
<path d="M12.4836 18.6206H10.7002V20.4827H12.4836V18.6206Z" fill="black"/>
<path d="M19.6174 18.6206H17.834V20.4827H19.6174V18.6206Z" fill="black"/>
<path d="M23.184 18.6206H21.4006V20.4827H23.184V18.6206Z" fill="black"/>
<path d="M30.3176 18.6206H28.5342V20.4827H30.3176V18.6206Z" fill="black"/>
<path d="M32.101 18.6206H30.3176V20.4827H32.101V18.6206Z" fill="black"/>
<path d="M35.6679 18.6206H33.8845V20.4827H35.6679V18.6206Z" fill="black"/>
<path d="M39.2346 18.6206H37.4512V20.4827H39.2346V18.6206Z" fill="black"/>
<path d="M41.018 18.6206H39.2346V20.4827H41.018V18.6206Z" fill="black"/>
<path d="M42.8012 18.6206H41.0178V20.4827H42.8012V18.6206Z" fill="black"/>
<path d="M44.5847 18.6206H42.8013V20.4827H44.5847V18.6206Z" fill="black"/>
<path d="M46.3681 18.6206H44.5847V20.4827H46.3681V18.6206Z" fill="black"/>
<path d="M48.1516 18.6206H46.3682V20.4827H48.1516V18.6206Z" fill="black"/>
<path d="M49.935 18.6206H48.1516V20.4827H49.935V18.6206Z" fill="black"/>
<path d="M3.56659 20.4824H1.7832V22.3445H3.56659V20.4824Z" fill="black"/>
<path d="M5.35028 20.4824H3.56689V22.3445H5.35028V20.4824Z" fill="black"/>
<path d="M17.8339 20.4824H16.0505V22.3445H17.8339V20.4824Z" fill="black"/>
<path d="M21.4008 20.4824H19.6174V22.3445H21.4008V20.4824Z" fill="black"/>
<path d="M26.7509 20.4824H24.9675V22.3445H26.7509V20.4824Z" fill="black"/>
<path d="M28.5341 20.4824H26.7507V22.3445H28.5341V20.4824Z" fill="black"/>
<path d="M35.6679 20.4824H33.8845V22.3445H35.6679V20.4824Z" fill="black"/>
<path d="M44.5847 20.4824H42.8013V22.3445H44.5847V20.4824Z" fill="black"/>
<path d="M48.1516 20.4824H46.3682V22.3445H48.1516V20.4824Z" fill="black"/>
<path d="M49.935 20.4824H48.1516V22.3445H49.935V20.4824Z" fill="black"/>
<path d="M1.78339 22.3447H0V24.2068H1.78339V22.3447Z" fill="black"/>
<path d="M3.56659 22.3447H1.7832V24.2068H3.56659V22.3447Z" fill="black"/>
<path d="M8.91694 22.3447H7.13354V24.2068H8.91694V22.3447Z" fill="black"/>
<path d="M10.7004 22.3447H8.91699V24.2068H10.7004V22.3447Z" fill="black"/>
<path d="M12.4836 22.3447H10.7002V24.2068H12.4836V22.3447Z" fill="black"/>
<path d="M17.8339 22.3447H16.0505V24.2068H17.8339V22.3447Z" fill="black"/>
<path d="M19.6174 22.3447H17.834V24.2068H19.6174V22.3447Z" fill="black"/>
<path d="M23.184 22.3447H21.4006V24.2068H23.184V22.3447Z" fill="black"/>
<path d="M30.3176 22.3447H28.5342V24.2068H30.3176V22.3447Z" fill="black"/>
<path d="M32.101 22.3447H30.3176V24.2068H32.101V22.3447Z" fill="black"/>
<path d="M35.6679 22.3447H33.8845V24.2068H35.6679V22.3447Z" fill="black"/>
<path d="M37.4511 22.3447H35.6677V24.2068H37.4511V22.3447Z" fill="black"/>
<path d="M39.2346 22.3447H37.4512V24.2068H39.2346V22.3447Z" fill="black"/>
<path d="M41.018 22.3447H39.2346V24.2068H41.018V22.3447Z" fill="black"/>
<path d="M46.3681 22.3447H44.5847V24.2068H46.3681V22.3447Z" fill="black"/>
<path d="M49.935 22.3447H48.1516V24.2068H49.935V22.3447Z" fill="black"/>
<path d="M51.7184 22.3447H49.9351V24.2068H51.7184V22.3447Z" fill="black"/>
<path d="M3.56659 24.207H1.7832V26.0691H3.56659V24.207Z" fill="black"/>
<path d="M5.35028 24.207H3.56689V26.0691H5.35028V24.207Z" fill="black"/>
<path d="M7.13349 24.207H5.3501V26.0691H7.13349V24.207Z" fill="black"/>
<path d="M10.7004 24.207H8.91699V26.0691H10.7004V24.207Z" fill="black"/>
<path d="M23.184 24.207H21.4006V26.0691H23.184V24.207Z" fill="black"/>
<path d="M28.5341 24.207H26.7507V26.0691H28.5341V24.207Z" fill="black"/>
<path d="M32.101 24.207H30.3176V26.0691H32.101V24.207Z" fill="black"/>
<path d="M33.8842 24.207H32.1008V26.0691H33.8842V24.207Z" fill="black"/>
<path d="M35.6679 24.207H33.8845V26.0691H35.6679V24.207Z" fill="black"/>
<path d="M37.4511 24.207H35.6677V26.0691H37.4511V24.207Z" fill="black"/>
<path d="M39.2346 24.207H37.4512V26.0691H39.2346V24.207Z" fill="black"/>
<path d="M3.56659 26.0688H1.7832V27.9309H3.56659V26.0688Z" fill="black"/>
<path d="M7.13349 26.0688H5.3501V27.9309H7.13349V26.0688Z" fill="black"/>
<path d="M12.4836 26.0688H10.7002V27.9309H12.4836V26.0688Z" fill="black"/>
<path d="M14.267 26.0688H12.4836V27.9309H14.267V26.0688Z" fill="black"/>
<path d="M16.0505 26.0688H14.2671V27.9309H16.0505V26.0688Z" fill="black"/>
<path d="M19.6174 26.0688H17.834V27.9309H19.6174V26.0688Z" fill="black"/>
<path d="M21.4008 26.0688H19.6174V27.9309H21.4008V26.0688Z" fill="black"/>
<path d="M23.184 26.0688H21.4006V27.9309H23.184V26.0688Z" fill="black"/>
<path d="M28.5341 26.0688H26.7507V27.9309H28.5341V26.0688Z" fill="black"/>
<path d="M30.3176 26.0688H28.5342V27.9309H30.3176V26.0688Z" fill="black"/>
<path d="M32.101 26.0688H30.3176V27.9309H32.101V26.0688Z" fill="black"/>
<path d="M37.4511 26.0688H35.6677V27.9309H37.4511V26.0688Z" fill="black"/>
<path d="M39.2346 26.0688H37.4512V27.9309H39.2346V26.0688Z" fill="black"/>
<path d="M41.018 26.0688H39.2346V27.9309H41.018V26.0688Z" fill="black"/>
<path d="M42.8012 26.0688H41.0178V27.9309H42.8012V26.0688Z" fill="black"/>
<path d="M46.3681 26.0688H44.5847V27.9309H46.3681V26.0688Z" fill="black"/>
<path d="M48.1516 26.0688H46.3682V27.9309H48.1516V26.0688Z" fill="black"/>
<path d="M49.935 26.0688H48.1516V27.9309H49.935V26.0688Z" fill="black"/>
<path d="M51.7184 26.0688H49.9351V27.9309H51.7184V26.0688Z" fill="black"/>
<path d="M1.78339 27.9312H0V29.7932H1.78339V27.9312Z" fill="black"/>
<path d="M3.56659 27.9312H1.7832V29.7932H3.56659V27.9312Z" fill="black"/>
<path d="M16.0505 27.9312H14.2671V29.7932H16.0505V27.9312Z" fill="black"/>
<path d="M19.6174 27.9312H17.834V29.7932H19.6174V27.9312Z" fill="black"/>
<path d="M24.9675 27.9312H23.1841V29.7932H24.9675V27.9312Z" fill="black"/>
<path d="M26.7509 27.9312H24.9675V29.7932H26.7509V27.9312Z" fill="black"/>
<path d="M30.3176 27.9312H28.5342V29.7932H30.3176V27.9312Z" fill="black"/>
<path d="M32.101 27.9312H30.3176V29.7932H32.101V27.9312Z" fill="black"/>
<path d="M35.6679 27.9312H33.8845V29.7932H35.6679V27.9312Z" fill="black"/>
<path d="M39.2346 27.9312H37.4512V29.7932H39.2346V27.9312Z" fill="black"/>
<path d="M41.018 27.9312H39.2346V29.7932H41.018V27.9312Z" fill="black"/>
<path d="M44.5847 27.9312H42.8013V29.7932H44.5847V27.9312Z" fill="black"/>
<path d="M46.3681 27.9312H44.5847V29.7932H46.3681V27.9312Z" fill="black"/>
<path d="M49.935 27.9312H48.1516V29.7932H49.935V27.9312Z" fill="black"/>
<path d="M10.7004 29.793H8.91699V31.655H10.7004V29.793Z" fill="black"/>
<path d="M12.4836 29.793H10.7002V31.655H12.4836V29.793Z" fill="black"/>
<path d="M19.6174 29.793H17.834V31.655H19.6174V29.793Z" fill="black"/>
<path d="M21.4008 29.793H19.6174V31.655H21.4008V29.793Z" fill="black"/>
<path d="M23.184 29.793H21.4006V31.655H23.184V29.793Z" fill="black"/>
<path d="M24.9675 29.793H23.1841V31.655H24.9675V29.793Z" fill="black"/>
<path d="M26.7509 29.793H24.9675V31.655H26.7509V29.793Z" fill="black"/>
<path d="M28.5341 29.793H26.7507V31.655H28.5341V29.793Z" fill="black"/>
<path d="M30.3176 29.793H28.5342V31.655H30.3176V29.793Z" fill="black"/>
<path d="M32.101 29.793H30.3176V31.655H32.101V29.793Z" fill="black"/>
<path d="M35.6679 29.793H33.8845V31.655H35.6679V29.793Z" fill="black"/>
<path d="M37.4511 29.793H35.6677V31.655H37.4511V29.793Z" fill="black"/>
<path d="M39.2346 29.793H37.4512V31.655H39.2346V29.793Z" fill="black"/>
<path d="M49.935 29.793H48.1516V31.655H49.935V29.793Z" fill="black"/>
<path d="M3.56659 31.6553H1.7832V33.5173H3.56659V31.6553Z" fill="black"/>
<path d="M5.35028 31.6553H3.56689V33.5173H5.35028V31.6553Z" fill="black"/>
<path d="M7.13349 31.6553H5.3501V33.5173H7.13349V31.6553Z" fill="black"/>
<path d="M8.91694 31.6553H7.13354V33.5173H8.91694V31.6553Z" fill="black"/>
<path d="M10.7004 31.6553H8.91699V33.5173H10.7004V31.6553Z" fill="black"/>
<path d="M16.0505 31.6553H14.2671V33.5173H16.0505V31.6553Z" fill="black"/>
<path d="M19.6174 31.6553H17.834V33.5173H19.6174V31.6553Z" fill="black"/>
<path d="M23.184 31.6553H21.4006V33.5173H23.184V31.6553Z" fill="black"/>
<path d="M28.5341 31.6553H26.7507V33.5173H28.5341V31.6553Z" fill="black"/>
<path d="M33.8842 31.6553H32.1008V33.5173H33.8842V31.6553Z" fill="black"/>
<path d="M39.2346 31.6553H37.4512V33.5173H39.2346V31.6553Z" fill="black"/>
<path d="M41.018 31.6553H39.2346V33.5173H41.018V31.6553Z" fill="black"/>
<path d="M42.8012 31.6553H41.0178V33.5173H42.8012V31.6553Z" fill="black"/>
<path d="M46.3681 31.6553H44.5847V33.5173H46.3681V31.6553Z" fill="black"/>
<path d="M51.7184 31.6553H49.9351V33.5173H51.7184V31.6553Z" fill="black"/>
<path d="M1.78339 33.5171H0V35.3792H1.78339V33.5171Z" fill="black"/>
<path d="M12.4836 33.5171H10.7002V35.3792H12.4836V33.5171Z" fill="black"/>
<path d="M14.267 33.5171H12.4836V35.3792H14.267V33.5171Z" fill="black"/>
<path d="M17.8339 33.5171H16.0505V35.3792H17.8339V33.5171Z" fill="black"/>
<path d="M19.6174 33.5171H17.834V35.3792H19.6174V33.5171Z" fill="black"/>
<path d="M23.184 33.5171H21.4006V35.3792H23.184V33.5171Z" fill="black"/>
<path d="M24.9675 33.5171H23.1841V35.3792H24.9675V33.5171Z" fill="black"/>
<path d="M32.101 33.5171H30.3176V35.3792H32.101V33.5171Z" fill="black"/>
<path d="M33.8842 33.5171H32.1008V35.3792H33.8842V33.5171Z" fill="black"/>
<path d="M37.4511 33.5171H35.6677V35.3792H37.4511V33.5171Z" fill="black"/>
<path d="M41.018 33.5171H39.2346V35.3792H41.018V33.5171Z" fill="black"/>
<path d="M42.8012 33.5171H41.0178V35.3792H42.8012V33.5171Z" fill="black"/>
<path d="M44.5847 33.5171H42.8013V35.3792H44.5847V33.5171Z" fill="black"/>
<path d="M49.935 33.5171H48.1516V35.3792H49.935V33.5171Z" fill="black"/>
<path d="M51.7184 33.5171H49.9351V35.3792H51.7184V33.5171Z" fill="black"/>
<path d="M5.35028 35.3794H3.56689V37.2415H5.35028V35.3794Z" fill="black"/>
<path d="M7.13349 35.3794H5.3501V37.2415H7.13349V35.3794Z" fill="black"/>
<path d="M24.9675 35.3794H23.1841V37.2415H24.9675V35.3794Z" fill="black"/>
<path d="M28.5341 35.3794H26.7507V37.2415H28.5341V35.3794Z" fill="black"/>
<path d="M30.3176 35.3794H28.5342V37.2415H30.3176V35.3794Z" fill="black"/>
<path d="M32.101 35.3794H30.3176V37.2415H32.101V35.3794Z" fill="black"/>
<path d="M35.6679 35.3794H33.8845V37.2415H35.6679V35.3794Z" fill="black"/>
<path d="M41.018 35.3794H39.2346V37.2415H41.018V35.3794Z" fill="black"/>
<path d="M49.935 35.3794H48.1516V37.2415H49.935V35.3794Z" fill="black"/>
<path d="M51.7184 35.3794H49.9351V37.2415H51.7184V35.3794Z" fill="black"/>
<path d="M1.78339 37.2412H0V39.1033H1.78339V37.2412Z" fill="black"/>
<path d="M5.35028 37.2412H3.56689V39.1033H5.35028V37.2412Z" fill="black"/>
<path d="M8.91694 37.2412H7.13354V39.1033H8.91694V37.2412Z" fill="black"/>
<path d="M12.4836 37.2412H10.7002V39.1033H12.4836V37.2412Z" fill="black"/>
<path d="M14.267 37.2412H12.4836V39.1033H14.267V37.2412Z" fill="black"/>
<path d="M17.8339 37.2412H16.0505V39.1033H17.8339V37.2412Z" fill="black"/>
<path d="M19.6174 37.2412H17.834V39.1033H19.6174V37.2412Z" fill="black"/>
<path d="M21.4008 37.2412H19.6174V39.1033H21.4008V37.2412Z" fill="black"/>
<path d="M23.184 37.2412H21.4006V39.1033H23.184V37.2412Z" fill="black"/>
<path d="M26.7509 37.2412H24.9675V39.1033H26.7509V37.2412Z" fill="black"/>
<path d="M30.3176 37.2412H28.5342V39.1033H30.3176V37.2412Z" fill="black"/>
<path d="M33.8842 37.2412H32.1008V39.1033H33.8842V37.2412Z" fill="black"/>
<path d="M37.4511 37.2412H35.6677V39.1033H37.4511V37.2412Z" fill="black"/>
<path d="M39.2346 37.2412H37.4512V39.1033H39.2346V37.2412Z" fill="black"/>
<path d="M41.018 37.2412H39.2346V39.1033H41.018V37.2412Z" fill="black"/>
<path d="M42.8012 37.2412H41.0178V39.1033H42.8012V37.2412Z" fill="black"/>
<path d="M44.5847 37.2412H42.8013V39.1033H44.5847V37.2412Z" fill="black"/>
<path d="M48.1516 37.2412H46.3682V39.1033H48.1516V37.2412Z" fill="black"/>
<path d="M16.0505 39.1035H14.2671V40.9656H16.0505V39.1035Z" fill="black"/>
<path d="M21.4008 39.1035H19.6174V40.9656H21.4008V39.1035Z" fill="black"/>
<path d="M24.9675 39.1035H23.1841V40.9656H24.9675V39.1035Z" fill="black"/>
<path d="M28.5341 39.1035H26.7507V40.9656H28.5341V39.1035Z" fill="black"/>
<path d="M30.3176 39.1035H28.5342V40.9656H30.3176V39.1035Z" fill="black"/>
<path d="M37.4511 39.1035H35.6677V40.9656H37.4511V39.1035Z" fill="black"/>
<path d="M44.5847 39.1035H42.8013V40.9656H44.5847V39.1035Z" fill="black"/>
<path d="M48.1516 39.1035H46.3682V40.9656H48.1516V39.1035Z" fill="black"/>
<path d="M49.935 39.1035H48.1516V40.9656H49.935V39.1035Z" fill="black"/>
<path d="M51.7184 39.1035H49.9351V40.9656H51.7184V39.1035Z" fill="black"/>
<path d="M17.8339 40.9658H16.0505V42.8279H17.8339V40.9658Z" fill="black"/>
<path d="M19.6174 40.9658H17.834V42.8279H19.6174V40.9658Z" fill="black"/>
<path d="M21.4008 40.9658H19.6174V42.8279H21.4008V40.9658Z" fill="black"/>
<path d="M23.184 40.9658H21.4006V42.8279H23.184V40.9658Z" fill="black"/>
<path d="M24.9675 40.9658H23.1841V42.8279H24.9675V40.9658Z" fill="black"/>
<path d="M26.7509 40.9658H24.9675V42.8279H26.7509V40.9658Z" fill="black"/>
<path d="M28.5341 40.9658H26.7507V42.8279H28.5341V40.9658Z" fill="black"/>
<path d="M32.101 40.9658H30.3176V42.8279H32.101V40.9658Z" fill="black"/>
<path d="M37.4511 40.9658H35.6677V42.8279H37.4511V40.9658Z" fill="black"/>
<path d="M41.018 40.9658H39.2346V42.8279H41.018V40.9658Z" fill="black"/>
<path d="M44.5847 40.9658H42.8013V42.8279H44.5847V40.9658Z" fill="black"/>
<path d="M49.935 40.9658H48.1516V42.8279H49.935V40.9658Z" fill="black"/>
<path d="M16.0505 42.8276H14.2671V44.6897H16.0505V42.8276Z" fill="black"/>
<path d="M19.6174 42.8276H17.834V44.6897H19.6174V42.8276Z" fill="black"/>
<path d="M23.184 42.8276H21.4006V44.6897H23.184V42.8276Z" fill="black"/>
<path d="M24.9675 42.8276H23.1841V44.6897H24.9675V42.8276Z" fill="black"/>
<path d="M30.3176 42.8276H28.5342V44.6897H30.3176V42.8276Z" fill="black"/>
<path d="M33.8842 42.8276H32.1008V44.6897H33.8842V42.8276Z" fill="black"/>
<path d="M37.4511 42.8276H35.6677V44.6897H37.4511V42.8276Z" fill="black"/>
<path d="M44.5847 42.8276H42.8013V44.6897H44.5847V42.8276Z" fill="black"/>
<path d="M46.3681 42.8276H44.5847V44.6897H46.3681V42.8276Z" fill="black"/>
<path d="M48.1516 42.8276H46.3682V44.6897H48.1516V42.8276Z" fill="black"/>
<path d="M49.935 42.8276H48.1516V44.6897H49.935V42.8276Z" fill="black"/>
<path d="M21.4008 44.6895H19.6174V46.5515H21.4008V44.6895Z" fill="black"/>
<path d="M23.184 44.6895H21.4006V46.5515H23.184V44.6895Z" fill="black"/>
<path d="M26.7509 44.6895H24.9675V46.5515H26.7509V44.6895Z" fill="black"/>
<path d="M28.5341 44.6895H26.7507V46.5515H28.5341V44.6895Z" fill="black"/>
<path d="M33.8842 44.6895H32.1008V46.5515H33.8842V44.6895Z" fill="black"/>
<path d="M37.4511 44.6895H35.6677V46.5515H37.4511V44.6895Z" fill="black"/>
<path d="M39.2346 44.6895H37.4512V46.5515H39.2346V44.6895Z" fill="black"/>
<path d="M41.018 44.6895H39.2346V46.5515H41.018V44.6895Z" fill="black"/>
<path d="M42.8012 44.6895H41.0178V46.5515H42.8012V44.6895Z" fill="black"/>
<path d="M44.5847 44.6895H42.8013V46.5515H44.5847V44.6895Z" fill="black"/>
<path d="M49.935 44.6895H48.1516V46.5515H49.935V44.6895Z" fill="black"/>
<path d="M16.0505 46.5518H14.2671V48.4138H16.0505V46.5518Z" fill="black"/>
<path d="M17.8339 46.5518H16.0505V48.4138H17.8339V46.5518Z" fill="black"/>
<path d="M19.6174 46.5518H17.834V48.4138H19.6174V46.5518Z" fill="black"/>
<path d="M21.4008 46.5518H19.6174V48.4138H21.4008V46.5518Z" fill="black"/>
<path d="M26.7509 46.5518H24.9675V48.4138H26.7509V46.5518Z" fill="black"/>
<path d="M28.5341 46.5518H26.7507V48.4138H28.5341V46.5518Z" fill="black"/>
<path d="M30.3176 46.5518H28.5342V48.4138H30.3176V46.5518Z" fill="black"/>
<path d="M35.6679 46.5518H33.8845V48.4138H35.6679V46.5518Z" fill="black"/>
<path d="M41.018 46.5518H39.2346V48.4138H41.018V46.5518Z" fill="black"/>
<path d="M42.8012 46.5518H41.0178V48.4138H42.8012V46.5518Z" fill="black"/>
<path d="M44.5847 46.5518H42.8013V48.4138H44.5847V46.5518Z" fill="black"/>
<path d="M46.3681 46.5518H44.5847V48.4138H46.3681V46.5518Z" fill="black"/>
<path d="M48.1516 46.5518H46.3682V48.4138H48.1516V46.5518Z" fill="black"/>
<path d="M51.7184 46.5518H49.9351V48.4138H51.7184V46.5518Z" fill="black"/>
<path d="M19.6174 48.4141H17.834V50.2761H19.6174V48.4141Z" fill="black"/>
<path d="M21.4008 48.4141H19.6174V50.2761H21.4008V48.4141Z" fill="black"/>
<path d="M23.184 48.4141H21.4006V50.2761H23.184V48.4141Z" fill="black"/>
<path d="M24.9675 48.4141H23.1841V50.2761H24.9675V48.4141Z" fill="black"/>
<path d="M35.6679 48.4141H33.8845V50.2761H35.6679V48.4141Z" fill="black"/>
<path d="M39.2346 48.4141H37.4512V50.2761H39.2346V48.4141Z" fill="black"/>
<path d="M44.5847 48.4141H42.8013V50.2761H44.5847V48.4141Z" fill="black"/>
<path d="M46.3681 48.4141H44.5847V50.2761H46.3681V48.4141Z" fill="black"/>
<path d="M48.1516 48.4141H46.3682V50.2761H48.1516V48.4141Z" fill="black"/>
<path d="M51.7184 48.4141H49.9351V50.2761H51.7184V48.4141Z" fill="black"/>
<path d="M19.6174 50.2759H17.834V52.1379H19.6174V50.2759Z" fill="black"/>
<path d="M21.4008 50.2759H19.6174V52.1379H21.4008V50.2759Z" fill="black"/>
<path d="M24.9675 50.2759H23.1841V52.1379H24.9675V50.2759Z" fill="black"/>
<path d="M28.5341 50.2759H26.7507V52.1379H28.5341V50.2759Z" fill="black"/>
<path d="M37.4511 50.2759H35.6677V52.1379H37.4511V50.2759Z" fill="black"/>
<path d="M42.8012 50.2759H41.0178V52.1379H42.8012V50.2759Z" fill="black"/>
<path d="M44.5847 50.2759H42.8013V52.1379H44.5847V50.2759Z" fill="black"/>
<path d="M49.935 50.2759H48.1516V52.1379H49.935V50.2759Z" fill="black"/>
<path d="M16.0505 52.1382H14.2671V54.0003H16.0505V52.1382Z" fill="black"/>
<path d="M17.8339 52.1382H16.0505V54.0003H17.8339V52.1382Z" fill="black"/>
<path d="M21.4008 52.1382H19.6174V54.0003H21.4008V52.1382Z" fill="black"/>
<path d="M23.184 52.1382H21.4006V54.0003H23.184V52.1382Z" fill="black"/>
<path d="M24.9675 52.1382H23.1841V54.0003H24.9675V52.1382Z" fill="black"/>
<path d="M26.7509 52.1382H24.9675V54.0003H26.7509V52.1382Z" fill="black"/>
<path d="M37.4511 52.1382H35.6677V54.0003H37.4511V52.1382Z" fill="black"/>
<path d="M44.5847 52.1382H42.8013V54.0003H44.5847V52.1382Z" fill="black"/>
<path d="M46.3681 52.1382H44.5847V54.0003H46.3681V52.1382Z" fill="black"/>
<path d="M49.935 52.1382H48.1516V54.0003H49.935V52.1382Z" fill="black"/>
<path d="M10.6112 0H1.87256H0V1.95517V11.0793V13.0345H1.87256H10.6112H12.4837V11.0793V1.95517V0H10.6112ZM10.6112 11.0793H1.87256V1.95517H10.6112V11.0793Z" fill="black"/>
<path d="M49.8458 0H41.1072H39.2346V1.95517V11.0793V13.0345H41.1072H49.8458H51.7184V11.0793V1.95517V0H49.8458ZM49.8458 11.0793H41.1072V1.95517H49.8458V11.0793Z" fill="black"/>
<path d="M10.6112 40.9658H1.87256H0V42.921V52.0451V54.0003H1.87256H10.6112H12.4837V52.0451V42.921V40.9658H10.6112ZM10.6112 52.0451H1.87256V42.921H10.6112V52.0451Z" fill="black"/>
<path d="M8.91707 3.72412H3.56689V9.31033H8.91707V3.72412Z" fill="black"/>
<path d="M48.1514 3.72412H42.8013V9.31033H48.1514V3.72412Z" fill="black"/>
<path d="M8.91707 44.6895H3.56689V50.2757H8.91707V44.6895Z" fill="black"/>
</svg>
