<svg width="126" height="34" viewBox="0 0 126 34" fill="none" xmlns="http://www.w3.org/2000/svg">
<path d="M37.6926 2.00293H39.2895V4.79025H42.2293V2.00293H43.8262V9.26157H42.2293V6.14036H39.2895V9.26883H37.6926V2.00293Z" fill="#4A4A4A"/>
<path d="M46.4611 6.98993C46.4829 7.44723 46.5991 7.78838 46.8168 7.99889C47.0346 8.20939 47.3467 8.31827 47.7532 8.31827C48.0435 8.31827 48.2976 8.24568 48.5081 8.10051C48.7186 7.95533 48.8492 7.8029 48.8928 7.63595H50.163C49.9598 8.2602 49.6477 8.71023 49.2267 8.98606C48.8057 9.26189 48.2976 9.3998 47.7024 9.3998C47.2886 9.3998 46.9184 9.33448 46.5845 9.19656C46.2506 9.05865 45.9748 8.86992 45.7425 8.63039C45.5103 8.39085 45.336 8.09325 45.2126 7.75935C45.0893 7.41819 45.0239 7.048 45.0239 6.64152C45.0239 6.24955 45.0893 5.88662 45.2199 5.54546C45.3506 5.20431 45.532 4.91396 45.7716 4.66717C46.0111 4.42037 46.2942 4.22439 46.6208 4.08648C46.9475 3.9413 47.3104 3.87598 47.7096 3.87598C48.1597 3.87598 48.5444 3.96308 48.8783 4.13729C49.2122 4.3115 49.4807 4.53651 49.6985 4.82686C49.9163 5.1172 50.0687 5.4511 50.163 5.82129C50.2574 6.19148 50.2937 6.58345 50.2647 6.98993H46.4611ZM48.8057 6.06809C48.7404 5.70515 48.617 5.42207 48.4427 5.23334C48.2685 5.04462 48.0072 4.95026 47.6588 4.95026C47.4265 4.95026 47.2378 4.98655 47.0854 5.06639C46.9329 5.14624 46.8095 5.2406 46.7224 5.35674C46.6281 5.47288 46.57 5.59628 46.5265 5.71967C46.4902 5.85033 46.4684 5.96647 46.4611 6.06809H48.8057Z" fill="#4A4A4A"/>
<path d="M51.3462 4.0065H52.7108V4.71785H52.7326C52.9213 4.44928 53.1536 4.23878 53.4222 4.08635C53.6907 3.93391 53.9956 3.86133 54.344 3.86133C54.6779 3.86133 54.9828 3.92666 55.2513 4.05731C55.5272 4.18797 55.7377 4.41299 55.8756 4.73237C56.028 4.50009 56.2458 4.29685 56.5143 4.12264C56.7829 3.94843 57.1023 3.86133 57.4652 3.86133C57.7411 3.86133 58.0024 3.89762 58.2346 3.96295C58.4742 4.02828 58.6774 4.13716 58.8444 4.28959C59.0113 4.44202 59.1492 4.63074 59.2436 4.87028C59.338 5.10981 59.3888 5.40016 59.3888 5.74132V9.2545H57.9443V6.27846C57.9443 6.10425 57.937 5.9373 57.9225 5.77761C57.908 5.61792 57.8717 5.48726 57.8136 5.37113C57.7556 5.25499 57.6612 5.16063 57.5451 5.0953C57.4289 5.02997 57.2692 4.99368 57.0587 4.99368C56.8555 4.99368 56.6886 5.02997 56.5652 5.10982C56.4418 5.18966 56.3401 5.29128 56.2676 5.41468C56.195 5.53807 56.1514 5.68325 56.1224 5.84294C56.1006 6.00263 56.0861 6.16232 56.0861 6.32927V9.2545H54.6416V6.31475C54.6416 6.16232 54.6416 6.00989 54.6344 5.85746C54.6271 5.70502 54.5981 5.55985 54.5473 5.4292C54.4964 5.29854 54.4093 5.19692 54.2932 5.11707C54.1771 5.03723 54.0029 5.00093 53.7706 5.00093C53.698 5.00093 53.6036 5.01545 53.4947 5.04449C53.3859 5.07352 53.277 5.13159 53.1754 5.21869C53.0737 5.3058 52.9794 5.4292 52.9068 5.58163C52.8342 5.74132 52.7979 5.95182 52.7979 6.20587V9.2545H51.3535L51.3462 4.0065Z" fill="#4A4A4A"/>
<path d="M61.9076 6.98993C61.9294 7.44723 62.0455 7.78838 62.2633 7.99889C62.481 8.20939 62.7932 8.31827 63.1996 8.31827C63.49 8.31827 63.744 8.24568 63.9545 8.10051C64.165 7.95533 64.2957 7.8029 64.3393 7.63595H65.6095C65.4063 8.2602 65.0942 8.71023 64.6732 8.98606C64.2521 9.26189 63.744 9.3998 63.1488 9.3998C62.7351 9.3998 62.3649 9.33448 62.031 9.19656C61.6971 9.05865 61.4213 8.86992 61.189 8.63039C60.9567 8.39085 60.7825 8.09325 60.6519 7.75935C60.5212 7.42545 60.4631 7.048 60.4631 6.64152C60.4631 6.24955 60.5285 5.88662 60.6591 5.54546C60.7898 5.20431 60.9712 4.91396 61.2108 4.66717C61.4503 4.42037 61.7334 4.22439 62.06 4.08648C62.3867 3.9413 62.7496 3.87598 63.1488 3.87598C63.5989 3.87598 63.9836 3.96308 64.3175 4.13729C64.6514 4.3115 64.9199 4.54377 65.1377 4.83412C65.3555 5.12446 65.5079 5.45836 65.6023 5.82855C65.6966 6.19874 65.7329 6.59071 65.7039 6.99719L61.9076 6.98993ZM64.2521 6.06809C64.1868 5.70515 64.0634 5.42207 63.8892 5.23334C63.715 5.04462 63.4537 4.95026 63.1053 4.95026C62.873 4.95026 62.6843 4.98655 62.5319 5.06639C62.3794 5.14624 62.256 5.2406 62.1689 5.35674C62.0746 5.47288 62.0165 5.59628 61.9729 5.71967C61.9366 5.85033 61.9149 5.96647 61.9076 6.06809H64.2521Z" fill="#4A4A4A"/>
<path d="M66.7565 4.00663H68.1283V4.74701H68.1574C68.3388 4.44941 68.5784 4.23165 68.8687 4.08648C69.1591 3.9413 69.4567 3.87598 69.7615 3.87598C70.1462 3.87598 70.4656 3.92679 70.7124 4.03567C70.9592 4.14455 71.1552 4.28246 71.2931 4.47119C71.431 4.65991 71.5326 4.88493 71.5907 5.1535C71.6488 5.42207 71.6778 5.71967 71.6778 6.03905V9.26915H70.2333V6.29311C70.2333 5.85759 70.1608 5.53821 70.0229 5.32045C69.8849 5.10269 69.6454 5.00107 69.3042 5.00107C68.9123 5.00107 68.6292 5.1172 68.4477 5.34948C68.2735 5.58176 68.1864 5.96647 68.1864 6.50361V9.25463H66.7419V4.00663H66.7565Z" fill="#4A4A4A"/>
<path d="M76.1636 2.00339H77.7605V9.26203H76.1636V2.00339ZM76.2797 0H77.6516V1.19042H76.2797V0Z" fill="#4A4A4A"/>
<path d="M79.212 4.00663H80.5839V4.74701H80.6129C80.7944 4.44941 81.0339 4.23165 81.3243 4.08648C81.6146 3.9413 81.9122 3.87598 82.2171 3.87598C82.6018 3.87598 82.9212 3.92679 83.168 4.03567C83.4148 4.14455 83.6108 4.28246 83.7487 4.47119C83.8938 4.65991 83.9882 4.88493 84.0463 5.1535C84.1044 5.42207 84.1334 5.71967 84.1334 6.03905V9.26915H82.6889V6.29311C82.6889 5.85759 82.6163 5.53821 82.4784 5.32045C82.3405 5.10995 82.101 5.00107 81.7598 5.00107C81.3678 5.00107 81.0848 5.1172 80.9033 5.34948C80.7291 5.58176 80.642 5.96647 80.642 6.50361V9.25463H79.1975V4.00663H79.212Z" fill="#4A4A4A"/>
<path d="M89.1926 8.58694H89.1709C89.0039 8.87003 88.7789 9.08053 88.5031 9.20393C88.2272 9.33458 87.9151 9.39991 87.5812 9.39991C87.182 9.39991 86.8336 9.32007 86.536 9.16763C86.2384 9.0152 85.9988 8.8047 85.8029 8.54339C85.6069 8.28208 85.4617 7.98447 85.3673 7.64332C85.2657 7.30216 85.2222 6.95375 85.2222 6.58356C85.2222 6.22788 85.273 5.89399 85.3673 5.56009C85.4617 5.23345 85.6141 4.9431 85.8029 4.68905C85.9988 4.44226 86.2384 4.23901 86.5287 4.08658C86.8191 3.93415 87.1602 3.86156 87.5449 3.86156C87.8571 3.86156 88.1547 3.92689 88.4305 4.05755C88.7136 4.1882 88.9313 4.38419 89.0983 4.63824H89.1201V1.99609H90.5645V9.25474H89.1926V8.58694ZM89.1128 5.99561C89.0692 5.79236 89.0039 5.61816 88.9023 5.46573C88.8007 5.31329 88.6773 5.1899 88.5176 5.09553C88.3579 5.00117 88.1619 4.95036 87.9296 4.95036C87.6901 4.95036 87.4941 5.00117 87.3272 5.09553C87.1675 5.1899 87.0368 5.31329 86.9352 5.47298C86.8336 5.62542 86.7683 5.80688 86.7247 6.00286C86.6812 6.20611 86.6594 6.40935 86.6594 6.62711C86.6594 6.83035 86.6812 7.03359 86.732 7.23683C86.7828 7.44008 86.8554 7.62154 86.957 7.78123C87.0586 7.94092 87.1965 8.07158 87.3562 8.16594C87.5159 8.26756 87.7046 8.31111 87.9296 8.31111C88.1692 8.31111 88.3652 8.2603 88.5249 8.16594C88.6845 8.07158 88.8079 7.94092 88.9096 7.78123C89.0039 7.62154 89.0692 7.44008 89.1128 7.23683C89.1564 7.03359 89.1709 6.82309 89.1709 6.60533C89.1709 6.40935 89.1491 6.20611 89.1128 5.99561Z" fill="#4A4A4A"/>
<path d="M93.3373 3.19335H91.8928V2.00293H93.3373V3.19335ZM91.8928 4.00632H93.3373V9.26157H91.8928V4.00632Z" fill="#4A4A4A"/>
<path d="M94.6804 4.0065H96.0523V4.97916H96.0741C96.1394 4.81947 96.2338 4.66704 96.3499 4.52912C96.466 4.39121 96.5967 4.26781 96.7491 4.17345C96.9016 4.07183 97.0612 3.99924 97.2355 3.94117C97.4097 3.89036 97.5839 3.86133 97.7581 3.86133C97.867 3.86133 97.9686 3.87585 98.0702 3.91214V5.25499C98.0049 5.24047 97.9178 5.22595 97.8234 5.21869C97.7291 5.21144 97.6347 5.20418 97.5476 5.20418C97.2863 5.20418 97.0613 5.24773 96.8798 5.33483C96.6983 5.42194 96.5459 5.54533 96.437 5.69776C96.3281 5.8502 96.2483 6.03166 96.1975 6.2349C96.1467 6.44541 96.1249 6.66316 96.1249 6.88818V9.2545H94.6804V4.0065Z" fill="#4A4A4A"/>
<path d="M100.524 3.19335H99.0791V2.00293H100.524V3.19335ZM99.0791 4.00632H100.524V9.26157H99.0791V4.00632Z" fill="#4A4A4A"/>
<path d="M101.866 4.00663H103.238V4.74701H103.267C103.448 4.44941 103.688 4.23165 103.978 4.08648C104.269 3.9413 104.566 3.87598 104.871 3.87598C105.256 3.87598 105.575 3.92679 105.822 4.03567C106.069 4.14455 106.265 4.28246 106.403 4.47119C106.548 4.65991 106.642 4.88493 106.7 5.1535C106.758 5.42207 106.787 5.71967 106.787 6.03905V9.26915H105.343V6.29311C105.343 5.85759 105.27 5.53821 105.132 5.32045C104.995 5.10995 104.755 5.00107 104.414 5.00107C104.022 5.00107 103.739 5.1172 103.557 5.34948C103.383 5.58176 103.296 5.96647 103.296 6.50361V9.25463H101.852V4.00663H101.866Z" fill="#4A4A4A"/>
<path d="M20.3372 16.187C20.3009 12.4053 23.4294 10.5688 23.5745 10.4817C21.8034 7.89766 19.0524 7.54199 18.087 7.51295C15.7787 7.27342 13.5431 8.8921 12.3672 8.8921C11.1695 8.8921 9.35484 7.53473 7.40953 7.57102C4.89804 7.61458 2.5535 9.0663 1.26146 11.3165C-1.39521 15.9185 0.586403 22.6763 3.13419 26.3999C4.41171 28.2219 5.89973 30.2543 7.84505 30.1817C9.74681 30.1019 10.4582 28.9695 12.7591 28.9695C15.0384 28.9695 15.7062 30.1817 17.695 30.1381C19.742 30.1019 21.0267 28.309 22.2535 26.4725C23.727 24.382 24.3149 22.3278 24.3439 22.2262C24.3004 22.2262 20.3807 20.7237 20.3372 16.187Z" fill="black"/>
<path d="M16.5846 5.07384C17.608 3.78906 18.3121 2.04699 18.1162 0.275879C16.6354 0.341207 14.7772 1.29935 13.7102 2.55509C12.7665 3.65841 11.9173 5.47307 12.135 7.17159C13.8045 7.30225 15.5176 6.33685 16.5846 5.07384Z" fill="black"/>
<path d="M47.5935 29.5432H44.9949L43.5722 25.0719H38.6363L37.2789 29.5432H34.7529L39.6525 14.3291H42.6721L47.5935 29.5432ZM43.1439 23.1992L41.8591 19.2287C41.7212 18.8222 41.4672 17.8641 41.0897 16.3615H41.0462C40.8937 17.0075 40.6542 17.9657 40.3203 19.2287L39.0573 23.1992H43.1439Z" fill="#4A4A4A"/>
<path d="M60.1873 23.9178C60.1873 25.7833 59.6865 27.2568 58.6775 28.3383C57.7774 29.3037 56.6523 29.7756 55.3168 29.7756C53.8723 29.7756 52.8343 29.2602 52.2028 28.2222H52.1592V34.0001H49.7203V22.183C49.7203 21.0144 49.6913 19.8094 49.626 18.5682H51.7673L51.9052 20.303H51.956C52.7617 18.9892 54.0029 18.3359 55.6579 18.3359C56.95 18.3359 58.0315 18.844 58.8953 19.8675C59.7518 20.9128 60.1873 22.2556 60.1873 23.9178ZM57.7049 24.0122C57.7049 22.9452 57.4653 22.0596 56.979 21.3701C56.4564 20.6442 55.745 20.2813 54.8595 20.2813C54.257 20.2813 53.7126 20.4772 53.219 20.8765C52.7327 21.2829 52.4133 21.7983 52.2609 22.4443C52.181 22.7419 52.1447 22.9887 52.1447 23.192V25.0211C52.1447 25.8123 52.3843 26.4874 52.8779 27.0463C53.3642 27.598 54.0029 27.8665 54.7869 27.8665C55.7015 27.8665 56.4201 27.5181 56.9282 26.8068C57.4508 26.1099 57.7049 25.1663 57.7049 24.0122Z" fill="#4A4A4A"/>
<path d="M72.7957 23.9178C72.7957 25.7833 72.2949 27.2568 71.2859 28.3383C70.3858 29.3037 69.2607 29.7756 67.9252 29.7756C66.4879 29.7756 65.4427 29.2602 64.8112 28.2222H64.7676V34.0001H62.3287V22.183C62.3287 21.0144 62.2997 19.8094 62.2344 18.5682H64.3757L64.5136 20.303H64.5644C65.3701 18.9892 66.6113 18.3359 68.2591 18.3359C69.5511 18.3359 70.6254 18.844 71.4964 19.8675C72.3674 20.9128 72.7957 22.2556 72.7957 23.9178ZM70.3205 24.0122C70.3205 22.9452 70.081 22.0596 69.5946 21.3701C69.072 20.6442 68.3607 20.2813 67.4751 20.2813C66.8726 20.2813 66.3282 20.4772 65.8347 20.8765C65.3483 21.2829 65.029 21.7983 64.8765 22.4443C64.7967 22.7419 64.7604 22.9887 64.7604 23.192V25.0211C64.7604 25.8123 64.9999 26.4874 65.4935 27.0463C65.9798 27.598 66.6113 27.8665 67.4025 27.8665C68.3171 27.8665 69.0357 27.5181 69.5438 26.8068C70.0592 26.1099 70.3205 25.1663 70.3205 24.0122Z" fill="#4A4A4A"/>
<path d="M86.899 25.2747C86.899 26.5667 86.449 27.6265 85.5416 28.4322C84.5472 29.3178 83.1753 29.7678 81.3969 29.7678C79.7565 29.7678 78.4427 29.4557 77.4482 28.8242L78.0144 26.7918C79.0887 27.4378 80.2573 27.7644 81.5421 27.7644C82.4567 27.7644 83.1753 27.5612 83.6834 27.1474C84.1915 26.7264 84.4528 26.1748 84.4528 25.4852C84.4528 24.8682 84.2423 24.3529 83.8213 23.9246C83.4003 23.4963 82.7035 23.1116 81.7236 22.7487C79.0597 21.7543 77.7313 20.3025 77.7313 18.3862C77.7313 17.1378 78.2031 16.107 79.1322 15.3158C80.0614 14.5174 81.3026 14.1182 82.8559 14.1182C84.2423 14.1182 85.3892 14.3577 86.3038 14.844L85.6941 16.8329C84.8375 16.3611 83.8649 16.1288 82.7833 16.1288C81.9268 16.1288 81.259 16.3393 80.7727 16.7603C80.3662 17.1378 80.163 17.5951 80.163 18.1395C80.163 18.7419 80.3953 19.2428 80.8598 19.6275C81.2663 19.9904 81.9994 20.3824 83.0737 20.8034C84.3802 21.326 85.3456 21.943 85.9626 22.6543C86.5941 23.3439 86.899 24.2222 86.899 25.2747Z" fill="#4A4A4A"/>
<path d="M94.9633 20.4041H92.2776V25.7319C92.2776 27.0893 92.7494 27.7643 93.7003 27.7643C94.1358 27.7643 94.4915 27.728 94.7818 27.6482L94.8472 29.4991C94.3753 29.6734 93.7366 29.7677 92.9526 29.7677C91.9872 29.7677 91.2323 29.4774 90.6952 28.8894C90.1581 28.3015 89.8822 27.3143 89.8822 25.9279V20.4041H88.2781V18.5749H89.8822V16.5642L92.2703 15.8384V18.5676H94.956L94.9633 20.4041Z" fill="#4A4A4A"/>
<path d="M107.078 23.9688C107.078 25.66 106.599 27.0392 105.641 28.1207C104.632 29.2313 103.289 29.7902 101.627 29.7902C100.015 29.7902 98.7304 29.2603 97.7796 28.186C96.8214 27.119 96.3496 25.7762 96.3496 24.1502C96.3496 22.4445 96.8359 21.0581 97.8231 19.9765C98.8103 18.8877 100.139 18.3506 101.801 18.3506C103.412 18.3506 104.704 18.8805 105.684 19.9547C106.613 20.9927 107.078 22.3283 107.078 23.9688ZM104.552 24.0486C104.552 23.0397 104.334 22.1686 103.899 21.4428C103.39 20.5717 102.657 20.129 101.714 20.129C100.734 20.129 99.9862 20.5717 99.4781 21.4428C99.0353 22.1686 98.8248 23.0469 98.8248 24.0922C98.8248 25.1011 99.0353 25.9722 99.4781 26.698C100.001 27.5691 100.741 28.0118 101.692 28.0118C102.621 28.0118 103.354 27.5618 103.877 26.6762C104.327 25.9359 104.552 25.0576 104.552 24.0486Z" fill="#4A4A4A"/>
<path d="M114.997 20.7242C114.758 20.6807 114.504 20.6589 114.228 20.6589C113.372 20.6589 112.711 20.9855 112.239 21.6316C111.833 22.205 111.629 22.9236 111.629 23.7946V29.5507H109.198L109.22 22.038C109.22 20.775 109.191 19.6282 109.125 18.5829H111.245L111.339 20.6807H111.404C111.659 19.9548 112.072 19.3741 112.624 18.9459C113.161 18.5539 113.749 18.3579 114.381 18.3579C114.606 18.3579 114.809 18.3724 114.99 18.4015V20.7242H114.997Z" fill="#4A4A4A"/>
<path d="M125.9 23.5395C125.9 23.9822 125.871 24.3379 125.813 24.6428H118.503C118.532 25.7316 118.888 26.5518 119.563 27.1252C120.18 27.6333 120.978 27.8947 121.951 27.8947C123.032 27.8947 124.012 27.7277 124.912 27.3793L125.297 29.0778C124.259 29.5351 123.032 29.7601 121.617 29.7601C119.918 29.7601 118.583 29.2593 117.618 28.2576C116.652 27.2559 116.166 25.913 116.166 24.229C116.166 22.5741 116.623 21.2022 117.523 20.0989C118.467 18.9302 119.752 18.3423 121.356 18.3423C122.938 18.3423 124.136 18.9302 124.949 20.0989C125.58 21.0207 125.9 22.1676 125.9 23.5395ZM123.577 22.908C123.591 22.1821 123.432 21.5579 123.105 21.0352C122.684 20.3602 122.031 20.019 121.16 20.019C120.369 20.019 119.723 20.3529 119.222 21.0135C118.815 21.5361 118.576 22.1676 118.503 22.908H123.577Z" fill="#4A4A4A"/>
</svg>
