<svg viewBox="0 0 137 137" fill="none" xmlns="http://www.w3.org/2000/svg">
<path d="M120.175 136H16.8243C8.08598 136 1 128.914 1 120.175V16.8243C1 8.08599 8.08598 1 16.8243 1H120.175C128.914 1 136 8.08599 136 16.8243V120.175C136 128.914 128.914 136 120.175 136Z" stroke="#891F71" stroke-miterlimit="10"/>
<path d="M94.4374 40.3554C95.9677 52.6311 84.7233 58.2534 84.7233 58.2534C85.2334 16.8242 53.0082 17.3343 53.0082 17.3343C59.6617 22.4464 67.3354 40.8655 47.8961 52.6312C47.6078 52.8086 47.3306 52.9749 47.0533 53.1524C17.2345 71.9374 31.2956 118.457 66.5149 119.643C66.9473 119.654 67.3909 119.665 67.8345 119.665C89.0259 119.665 105.87 102.488 106.192 81.3078C106.48 62.4118 94.4374 40.3554 94.4374 40.3554ZM74.4547 109.541C61.2586 113.899 47.0201 106.735 42.662 93.5392C38.304 80.3431 45.4676 66.1045 58.6637 61.7465C58.6637 61.7465 45.5341 76.5506 54.6051 89.5914C54.6051 89.5914 53.4296 81.1525 61.0257 77.1937C61.0257 77.1937 52.7864 102.244 76.0405 109.02L74.4547 109.541Z" fill="url(#paint0_linear_399_68)"/>
<defs>
<linearGradient id="paint0_linear_399_68" x1="68.7206" y1="118.887" x2="68.2031" y2="30.7509" gradientUnits="userSpaceOnUse">
<stop offset="5.32779e-09" stop-color="#891F71"/>
<stop offset="0.3439" stop-color="#A03782"/>
<stop offset="0.7635" stop-color="#B95498"/>
<stop offset="1" stop-color="#C260A1"/>
</linearGradient>
</defs>
</svg>
