<svg viewBox="0 0 137 137" fill="none" xmlns="http://www.w3.org/2000/svg">
<path d="M120.175 136H16.8243C8.08598 136 1 128.914 1 120.175V16.8243C1 8.08599 8.08598 1 16.8243 1H120.175C128.914 1 136 8.08599 136 16.8243V120.175C136 128.914 128.914 136 120.175 136Z" stroke="#891F71" stroke-miterlimit="10"/>
<path d="M86.3312 65.4392L46.9757 107.511L34.3895 120.974L55.6142 78.7018L53.4407 78.5687L34.3895 77.3822L59.9944 21.7477L62.6337 16.0146H102.067L71.1834 59.7615L67.1802 65.4392H86.3312Z" fill="url(#paint0_linear_399_61)"/>
<path d="M103.497 15.4158C103.276 14.9833 102.821 14.7061 102.333 14.7061H62.8998C62.3897 14.7061 61.924 15.0055 61.7133 15.4712L33.4691 76.8277C33.2917 77.2158 33.3139 77.6815 33.5356 78.0475C33.7574 78.4134 34.1456 78.6574 34.578 78.6796L53.8289 79.8772L33.4913 120.375C33.203 120.963 33.3804 121.672 33.9127 122.049C34.1455 122.205 34.4006 122.282 34.6667 122.282C35.0216 122.282 35.3654 122.138 35.6315 121.861L87.5733 66.3262C87.9281 65.9381 88.0279 65.3836 87.8172 64.9068C87.6065 64.43 87.1297 64.1195 86.6196 64.1195H70.008L103.431 16.7686C103.686 16.3694 103.719 15.8482 103.497 15.4158ZM66.404 64.6517L66.3929 64.6739C66.1046 65.0732 66.0713 65.5943 66.2931 66.0379C66.5149 66.4704 66.9695 66.7476 67.4575 66.7476H83.5811L39.9452 113.411L39.923 113.433L57.0669 79.2895C57.2665 78.9014 57.2554 78.4245 57.0336 78.0475C56.8119 77.6594 56.4126 77.4154 55.9691 77.3932L36.6517 76.1845L63.7426 17.3231H99.7935L66.4262 64.5963L66.404 64.6517Z" fill="#931D7C"/>
<defs>
<linearGradient id="paint0_linear_399_61" x1="34.3854" y1="68.4994" x2="102.063" y2="68.4994" gradientUnits="userSpaceOnUse">
<stop offset="5.32779e-09" stop-color="#891F71"/>
<stop offset="0.3439" stop-color="#A03782"/>
<stop offset="0.7635" stop-color="#B95498"/>
<stop offset="1" stop-color="#C260A1"/>
</linearGradient>
</defs>
</svg>
