<svg width="125" height="31" viewBox="0 0 125 31" fill="none" xmlns="http://www.w3.org/2000/svg">
<path d="M62.6423 17.7271C60.1109 17.7271 58.0416 19.6558 58.0416 22.3078C58.0416 24.9463 60.1042 26.8884 62.6423 26.8884C65.1738 26.8884 67.2431 24.9463 67.2431 22.3078C67.2431 19.6558 65.1805 17.7271 62.6423 17.7271ZM62.6423 25.087C61.2561 25.087 60.0574 23.9418 60.0574 22.3078C60.0574 20.6603 61.2561 19.5286 62.6423 19.5286C64.0286 19.5286 65.2273 20.6536 65.2273 22.3078C65.2273 23.9418 64.0353 25.087 62.6423 25.087ZM52.6104 17.7271C50.079 17.7271 48.0097 19.6558 48.0097 22.3078C48.0097 24.9463 50.0723 26.8884 52.6104 26.8884C55.1419 26.8884 57.2112 24.9463 57.2112 22.3078C57.2112 19.6558 55.1486 17.7271 52.6104 17.7271ZM52.6104 25.087C51.2242 25.087 50.0255 23.9418 50.0255 22.3078C50.0255 20.6603 51.2242 19.5286 52.6104 19.5286C53.9967 19.5286 55.1954 20.6536 55.1954 22.3078C55.1954 23.9418 54.0034 25.087 52.6104 25.087ZM40.6766 19.1334V21.0755H45.3242C45.1836 22.1671 44.822 22.9641 44.2661 23.5199C43.5898 24.1963 42.5317 24.9396 40.6766 24.9396C37.8104 24.9396 35.5736 22.6292 35.5736 19.7697C35.5736 16.9101 37.8104 14.5997 40.6766 14.5997C42.2236 14.5997 43.3487 15.2091 44.1791 15.9859L45.5519 14.6131C44.3867 13.5014 42.8464 12.6509 40.6766 12.6509C36.7523 12.6509 33.4574 15.8453 33.4574 19.763C33.4574 23.6873 36.7523 26.875 40.6766 26.875C42.7928 26.875 44.3934 26.1786 45.639 24.8794C46.9248 23.5936 47.3199 21.7921 47.3199 20.3322C47.3199 19.8835 47.2864 19.4616 47.2128 19.1201H40.6766V19.1334ZM89.4834 20.6469C89.1017 19.6223 87.9364 17.7338 85.559 17.7338C83.2017 17.7338 81.2396 19.5888 81.2396 22.3145C81.2396 24.8861 83.1816 26.8951 85.7867 26.8951C87.8895 26.8951 89.1017 25.6093 89.6039 24.866L88.0436 23.828C87.5212 24.5914 86.8113 25.0937 85.7867 25.0937C84.7621 25.0937 84.0322 24.6249 83.5634 23.7074L89.691 21.176L89.4834 20.6469ZM83.2352 22.1738C83.1816 20.4059 84.6081 19.5018 85.6327 19.5018C86.4296 19.5018 87.106 19.9036 87.3337 20.4728L83.2352 22.1738ZM78.2528 26.6205H80.2685V13.1464H78.2528V26.6205ZM74.9579 18.7517H74.8909C74.4422 18.216 73.5716 17.7271 72.48 17.7271C70.1897 17.7271 68.0869 19.7429 68.0869 22.3279C68.0869 24.8928 70.1897 26.8884 72.48 26.8884C73.5716 26.8884 74.4422 26.3996 74.8909 25.8504H74.9579V26.5067C74.9579 28.2613 74.0203 29.1988 72.5135 29.1988C71.2813 29.1988 70.5179 28.3149 70.2031 27.5648L68.4485 28.2948C68.9508 29.5069 70.2902 31.0003 72.5068 31.0003C74.8641 31.0003 76.8598 29.614 76.8598 26.2254V18.0084H74.9512V18.7517H74.9579ZM72.6475 25.087C71.2612 25.087 70.096 23.9217 70.096 22.3279C70.096 20.7139 71.2612 19.5353 72.6475 19.5353C74.0203 19.5353 75.0918 20.7139 75.0918 22.3279C75.0985 23.9217 74.0203 25.087 72.6475 25.087ZM98.9126 13.1464H94.0975V26.6205H96.1066V21.5175H98.9126C101.143 21.5175 103.333 19.9036 103.333 17.3387C103.333 14.7738 101.136 13.1464 98.9126 13.1464ZM98.9595 19.6357H96.0999V15.0216H98.9595C100.46 15.0216 101.317 16.2672 101.317 17.332C101.317 18.3767 100.466 19.6357 98.9595 19.6357ZM111.382 17.707C109.929 17.707 108.422 18.3499 107.799 19.7697L109.581 20.513C109.962 19.7697 110.672 19.5286 111.416 19.5286C112.454 19.5286 113.512 20.1514 113.532 21.2631V21.4037C113.17 21.1961 112.387 20.8813 111.436 20.8813C109.514 20.8813 107.558 21.9394 107.558 23.915C107.558 25.7165 109.132 26.875 110.9 26.875C112.253 26.875 112.996 26.2656 113.465 25.5557H113.532V26.5938H115.474V21.4305C115.474 19.0397 113.686 17.707 111.382 17.707ZM111.141 25.087C110.485 25.087 109.567 24.7588 109.567 23.9418C109.567 22.9038 110.712 22.502 111.697 22.502C112.581 22.502 112.996 22.6895 113.532 22.9507C113.378 24.203 112.3 25.087 111.141 25.087ZM122.539 18.0017L120.235 23.8413H120.168L117.778 18.0017H115.615L119.197 26.1585L117.155 30.6989H119.251L124.776 18.0017H122.539ZM104.438 26.6205H106.447V13.1464H104.438V26.6205Z" fill="#4A4A4A"/>
<path d="M0.495568 2.43192C0.180816 2.76007 0 3.27573 0 3.94542V27.7461C0 28.4158 0.187512 28.9247 0.495568 29.2596L0.575931 29.3399L13.9094 16.0065V15.8525V15.6984L0.575931 2.35156L0.495568 2.43192Z" fill="#70C9F3"/>
<mask id="mask0_365_1542" style="mask-type:luminance" maskUnits="userSpaceOnUse" x="13" y="11" width="12" height="10">
<path d="M18.3493 20.4456L13.9026 15.9989V15.8449V15.6909L18.3493 11.2441L18.4498 11.3044L23.7135 14.2979C25.2203 15.1551 25.2203 16.5481 23.7135 17.4053L18.4498 20.3988L18.3493 20.4456Z" fill="white"/>
</mask>
<g mask="url(#mask0_365_1542)">
<path d="M25.2272 11.2378H22.7427V20.446H25.2272V11.2378Z" fill="#FFE000"/>
</g>
<mask id="mask1_365_1542" style="mask-type:luminance" maskUnits="userSpaceOnUse" x="13" y="11" width="12" height="10">
<path d="M18.3493 20.4456L13.9026 15.9989V15.8449V15.6909L18.3493 11.2441L18.4498 11.3044L23.7135 14.2979C25.2203 15.1551 25.2203 16.5481 23.7135 17.4053L18.4498 20.3988L18.3493 20.4456Z" fill="white"/>
</mask>
<g mask="url(#mask1_365_1542)">
<path d="M22.7425 11.2378H22.4746V20.446H22.7425V11.2378Z" fill="#FFE000"/>
</g>
<mask id="mask2_365_1542" style="mask-type:luminance" maskUnits="userSpaceOnUse" x="13" y="11" width="12" height="10">
<path d="M18.3493 20.4456L13.9026 15.9989V15.8449V15.6909L18.3493 11.2441L18.4498 11.3044L23.7135 14.2979C25.2203 15.1551 25.2203 16.5481 23.7135 17.4053L18.4498 20.3988L18.3493 20.4456Z" fill="white"/>
</mask>
<g mask="url(#mask2_365_1542)">
<path d="M22.4748 11.2378H22.2069V20.446H22.4748V11.2378Z" fill="#FFDF00"/>
</g>
<mask id="mask3_365_1542" style="mask-type:luminance" maskUnits="userSpaceOnUse" x="13" y="11" width="12" height="10">
<path d="M18.3493 20.4456L13.9026 15.9989V15.8449V15.6909L18.3493 11.2441L18.4498 11.3044L23.7135 14.2979C25.2203 15.1551 25.2203 16.5481 23.7135 17.4053L18.4498 20.3988L18.3493 20.4456Z" fill="white"/>
</mask>
<g mask="url(#mask3_365_1542)">
<path d="M22.2133 11.2378H21.9454V20.446H22.2133V11.2378Z" fill="#FFDE00"/>
</g>
<mask id="mask4_365_1542" style="mask-type:luminance" maskUnits="userSpaceOnUse" x="13" y="11" width="12" height="10">
<path d="M18.3493 20.4456L13.9026 15.9989V15.8449V15.6909L18.3493 11.2441L18.4498 11.3044L23.7135 14.2979C25.2203 15.1551 25.2203 16.5481 23.7135 17.4053L18.4498 20.3988L18.3493 20.4456Z" fill="white"/>
</mask>
<g mask="url(#mask4_365_1542)">
<path d="M21.9457 11.2378H21.6779V20.446H21.9457V11.2378Z" fill="#FFDD00"/>
</g>
<mask id="mask5_365_1542" style="mask-type:luminance" maskUnits="userSpaceOnUse" x="13" y="11" width="12" height="10">
<path d="M18.3493 20.4456L13.9026 15.9989V15.8449V15.6909L18.3493 11.2441L18.4498 11.3044L23.7135 14.2979C25.2203 15.1551 25.2203 16.5481 23.7135 17.4053L18.4498 20.3988L18.3493 20.4456Z" fill="white"/>
</mask>
<g mask="url(#mask5_365_1542)">
<path d="M21.6777 11.2378H21.4098V20.446H21.6777V11.2378Z" fill="#FFDD00"/>
</g>
<mask id="mask6_365_1542" style="mask-type:luminance" maskUnits="userSpaceOnUse" x="13" y="11" width="12" height="10">
<path d="M18.3493 20.4456L13.9026 15.9989V15.8449V15.6909L18.3493 11.2441L18.4498 11.3044L23.7135 14.2979C25.2203 15.1551 25.2203 16.5481 23.7135 17.4053L18.4498 20.3988L18.3493 20.4456Z" fill="white"/>
</mask>
<g mask="url(#mask6_365_1542)">
<path d="M21.4168 11.2378H21.1489V20.446H21.4168V11.2378Z" fill="#FFDC00"/>
</g>
<mask id="mask7_365_1542" style="mask-type:luminance" maskUnits="userSpaceOnUse" x="13" y="11" width="12" height="10">
<path d="M18.3493 20.4456L13.9026 15.9989V15.8449V15.6909L18.3493 11.2441L18.4498 11.3044L23.7135 14.2979C25.2203 15.1551 25.2203 16.5481 23.7135 17.4053L18.4498 20.3988L18.3493 20.4456Z" fill="white"/>
</mask>
<g mask="url(#mask7_365_1542)">
<path d="M21.149 11.2378H20.8811V20.446H21.149V11.2378Z" fill="#FFDB00"/>
</g>
<mask id="mask8_365_1542" style="mask-type:luminance" maskUnits="userSpaceOnUse" x="13" y="11" width="12" height="10">
<path d="M18.3493 20.4456L13.9026 15.9989V15.8449V15.6909L18.3493 11.2441L18.4498 11.3044L23.7135 14.2979C25.2203 15.1551 25.2203 16.5481 23.7135 17.4053L18.4498 20.3988L18.3493 20.4456Z" fill="white"/>
</mask>
<g mask="url(#mask8_365_1542)">
<path d="M20.8807 11.2378H20.6128V20.446H20.8807V11.2378Z" fill="#FFDA00"/>
</g>
<mask id="mask9_365_1542" style="mask-type:luminance" maskUnits="userSpaceOnUse" x="13" y="11" width="12" height="10">
<path d="M18.3493 20.4456L13.9026 15.9989V15.8449V15.6909L18.3493 11.2441L18.4498 11.3044L23.7135 14.2979C25.2203 15.1551 25.2203 16.5481 23.7135 17.4053L18.4498 20.3988L18.3493 20.4456Z" fill="white"/>
</mask>
<g mask="url(#mask9_365_1542)">
<path d="M20.6197 11.2378H20.3518V20.446H20.6197V11.2378Z" fill="#FFD900"/>
</g>
<mask id="mask10_365_1542" style="mask-type:luminance" maskUnits="userSpaceOnUse" x="13" y="11" width="12" height="10">
<path d="M18.3493 20.4456L13.9026 15.9989V15.8449V15.6909L18.3493 11.2441L18.4498 11.3044L23.7135 14.2979C25.2203 15.1551 25.2203 16.5481 23.7135 17.4053L18.4498 20.3988L18.3493 20.4456Z" fill="white"/>
</mask>
<g mask="url(#mask10_365_1542)">
<path d="M20.3517 11.2378H20.0839V20.446H20.3517V11.2378Z" fill="#FFD800"/>
</g>
<mask id="mask11_365_1542" style="mask-type:luminance" maskUnits="userSpaceOnUse" x="13" y="11" width="12" height="10">
<path d="M18.3493 20.4456L13.9026 15.9989V15.8449V15.6909L18.3493 11.2441L18.4498 11.3044L23.7135 14.2979C25.2203 15.1551 25.2203 16.5481 23.7135 17.4053L18.4498 20.3988L18.3493 20.4456Z" fill="white"/>
</mask>
<g mask="url(#mask11_365_1542)">
<path d="M20.0839 11.2378H19.816V20.446H20.0839V11.2378Z" fill="#FFD800"/>
</g>
<mask id="mask12_365_1542" style="mask-type:luminance" maskUnits="userSpaceOnUse" x="13" y="11" width="12" height="10">
<path d="M18.3493 20.4456L13.9026 15.9989V15.8449V15.6909L18.3493 11.2441L18.4498 11.3044L23.7135 14.2979C25.2203 15.1551 25.2203 16.5481 23.7135 17.4053L18.4498 20.3988L18.3493 20.4456Z" fill="white"/>
</mask>
<g mask="url(#mask12_365_1542)">
<path d="M19.8224 11.2378H19.5546V20.446H19.8224V11.2378Z" fill="#FFD700"/>
</g>
<mask id="mask13_365_1542" style="mask-type:luminance" maskUnits="userSpaceOnUse" x="13" y="11" width="12" height="10">
<path d="M18.3493 20.4456L13.9026 15.9989V15.8449V15.6909L18.3493 11.2441L18.4498 11.3044L23.7135 14.2979C25.2203 15.1551 25.2203 16.5481 23.7135 17.4053L18.4498 20.3988L18.3493 20.4456Z" fill="white"/>
</mask>
<g mask="url(#mask13_365_1542)">
<path d="M19.555 11.2378H19.2871V20.446H19.555V11.2378Z" fill="#FFD600"/>
</g>
<mask id="mask14_365_1542" style="mask-type:luminance" maskUnits="userSpaceOnUse" x="13" y="11" width="12" height="10">
<path d="M18.3493 20.4456L13.9026 15.9989V15.8449V15.6909L18.3493 11.2441L18.4498 11.3044L23.7135 14.2979C25.2203 15.1551 25.2203 16.5481 23.7135 17.4053L18.4498 20.3988L18.3493 20.4456Z" fill="white"/>
</mask>
<g mask="url(#mask14_365_1542)">
<path d="M19.2869 11.2378H19.019V20.446H19.2869V11.2378Z" fill="#FFD500"/>
</g>
<mask id="mask15_365_1542" style="mask-type:luminance" maskUnits="userSpaceOnUse" x="13" y="11" width="12" height="10">
<path d="M18.3493 20.4456L13.9026 15.9989V15.8449V15.6909L18.3493 11.2441L18.4498 11.3044L23.7135 14.2979C25.2203 15.1551 25.2203 16.5481 23.7135 17.4053L18.4498 20.3988L18.3493 20.4456Z" fill="white"/>
</mask>
<g mask="url(#mask15_365_1542)">
<path d="M19.0257 11.2378H18.7578V20.446H19.0257V11.2378Z" fill="#FED400"/>
</g>
<mask id="mask16_365_1542" style="mask-type:luminance" maskUnits="userSpaceOnUse" x="13" y="11" width="12" height="10">
<path d="M18.3493 20.4456L13.9026 15.9989V15.8449V15.6909L18.3493 11.2441L18.4498 11.3044L23.7135 14.2979C25.2203 15.1551 25.2203 16.5481 23.7135 17.4053L18.4498 20.3988L18.3493 20.4456Z" fill="white"/>
</mask>
<g mask="url(#mask16_365_1542)">
<path d="M18.7579 11.2378H18.49V20.446H18.7579V11.2378Z" fill="#FED300"/>
</g>
<mask id="mask17_365_1542" style="mask-type:luminance" maskUnits="userSpaceOnUse" x="13" y="11" width="12" height="10">
<path d="M18.3493 20.4456L13.9026 15.9989V15.8449V15.6909L18.3493 11.2441L18.4498 11.3044L23.7135 14.2979C25.2203 15.1551 25.2203 16.5481 23.7135 17.4053L18.4498 20.3988L18.3493 20.4456Z" fill="white"/>
</mask>
<g mask="url(#mask17_365_1542)">
<path d="M18.4899 11.2378H18.222V20.446H18.4899V11.2378Z" fill="#FED300"/>
</g>
<mask id="mask18_365_1542" style="mask-type:luminance" maskUnits="userSpaceOnUse" x="13" y="11" width="12" height="10">
<path d="M18.3493 20.4456L13.9026 15.9989V15.8449V15.6909L18.3493 11.2441L18.4498 11.3044L23.7135 14.2979C25.2203 15.1551 25.2203 16.5481 23.7135 17.4053L18.4498 20.3988L18.3493 20.4456Z" fill="white"/>
</mask>
<g mask="url(#mask18_365_1542)">
<path d="M18.2221 11.2378H17.9542V20.446H18.2221V11.2378Z" fill="#FED200"/>
</g>
<mask id="mask19_365_1542" style="mask-type:luminance" maskUnits="userSpaceOnUse" x="13" y="11" width="12" height="10">
<path d="M18.3493 20.4456L13.9026 15.9989V15.8449V15.6909L18.3493 11.2441L18.4498 11.3044L23.7135 14.2979C25.2203 15.1551 25.2203 16.5481 23.7135 17.4053L18.4498 20.3988L18.3493 20.4456Z" fill="white"/>
</mask>
<g mask="url(#mask19_365_1542)">
<path d="M17.9606 11.2378H17.6927V20.446H17.9606V11.2378Z" fill="#FED100"/>
</g>
<mask id="mask20_365_1542" style="mask-type:luminance" maskUnits="userSpaceOnUse" x="13" y="11" width="12" height="10">
<path d="M18.3493 20.4456L13.9026 15.9989V15.8449V15.6909L18.3493 11.2441L18.4498 11.3044L23.7135 14.2979C25.2203 15.1551 25.2203 16.5481 23.7135 17.4053L18.4498 20.3988L18.3493 20.4456Z" fill="white"/>
</mask>
<g mask="url(#mask20_365_1542)">
<path d="M17.6932 11.2378H17.4253V20.446H17.6932V11.2378Z" fill="#FED000"/>
</g>
<mask id="mask21_365_1542" style="mask-type:luminance" maskUnits="userSpaceOnUse" x="13" y="11" width="12" height="10">
<path d="M18.3493 20.4456L13.9026 15.9989V15.8449V15.6909L18.3493 11.2441L18.4498 11.3044L23.7135 14.2979C25.2203 15.1551 25.2203 16.5481 23.7135 17.4053L18.4498 20.3988L18.3493 20.4456Z" fill="white"/>
</mask>
<g mask="url(#mask21_365_1542)">
<path d="M17.4253 11.2378H17.1575V20.446H17.4253V11.2378Z" fill="#FECF00"/>
</g>
<mask id="mask22_365_1542" style="mask-type:luminance" maskUnits="userSpaceOnUse" x="13" y="11" width="12" height="10">
<path d="M18.3493 20.4456L13.9026 15.9989V15.8449V15.6909L18.3493 11.2441L18.4498 11.3044L23.7135 14.2979C25.2203 15.1551 25.2203 16.5481 23.7135 17.4053L18.4498 20.3988L18.3493 20.4456Z" fill="white"/>
</mask>
<g mask="url(#mask22_365_1542)">
<path d="M17.1641 11.2378H16.8962V20.446H17.1641V11.2378Z" fill="#FDCE00"/>
</g>
<mask id="mask23_365_1542" style="mask-type:luminance" maskUnits="userSpaceOnUse" x="13" y="11" width="12" height="10">
<path d="M18.3493 20.4456L13.9026 15.9989V15.8449V15.6909L18.3493 11.2441L18.4498 11.3044L23.7135 14.2979C25.2203 15.1551 25.2203 16.5481 23.7135 17.4053L18.4498 20.3988L18.3493 20.4456Z" fill="white"/>
</mask>
<g mask="url(#mask23_365_1542)">
<path d="M16.8963 11.2378H16.6284V20.446H16.8963V11.2378Z" fill="#FDCE00"/>
</g>
<mask id="mask24_365_1542" style="mask-type:luminance" maskUnits="userSpaceOnUse" x="13" y="11" width="12" height="10">
<path d="M18.3493 20.4456L13.9026 15.9989V15.8449V15.6909L18.3493 11.2441L18.4498 11.3044L23.7135 14.2979C25.2203 15.1551 25.2203 16.5481 23.7135 17.4053L18.4498 20.3988L18.3493 20.4456Z" fill="white"/>
</mask>
<g mask="url(#mask24_365_1542)">
<path d="M16.6286 11.2378H16.3607V20.446H16.6286V11.2378Z" fill="#FDCD00"/>
</g>
<mask id="mask25_365_1542" style="mask-type:luminance" maskUnits="userSpaceOnUse" x="13" y="11" width="12" height="10">
<path d="M18.3493 20.4456L13.9026 15.9989V15.8449V15.6909L18.3493 11.2441L18.4498 11.3044L23.7135 14.2979C25.2203 15.1551 25.2203 16.5481 23.7135 17.4053L18.4498 20.3988L18.3493 20.4456Z" fill="white"/>
</mask>
<g mask="url(#mask25_365_1542)">
<path d="M16.3671 11.2378H16.0992V20.446H16.3671V11.2378Z" fill="#FDCC00"/>
</g>
<mask id="mask26_365_1542" style="mask-type:luminance" maskUnits="userSpaceOnUse" x="13" y="11" width="12" height="10">
<path d="M18.3493 20.4456L13.9026 15.9989V15.8449V15.6909L18.3493 11.2441L18.4498 11.3044L23.7135 14.2979C25.2203 15.1551 25.2203 16.5481 23.7135 17.4053L18.4498 20.3988L18.3493 20.4456Z" fill="white"/>
</mask>
<g mask="url(#mask26_365_1542)">
<path d="M16.0993 11.2378H15.8314V20.446H16.0993V11.2378Z" fill="#FDCB00"/>
</g>
<mask id="mask27_365_1542" style="mask-type:luminance" maskUnits="userSpaceOnUse" x="13" y="11" width="12" height="10">
<path d="M18.3493 20.4456L13.9026 15.9989V15.8449V15.6909L18.3493 11.2441L18.4498 11.3044L23.7135 14.2979C25.2203 15.1551 25.2203 16.5481 23.7135 17.4053L18.4498 20.3988L18.3493 20.4456Z" fill="white"/>
</mask>
<g mask="url(#mask27_365_1542)">
<path d="M15.8314 11.2378H15.5635V20.446H15.8314V11.2378Z" fill="#FDCA00"/>
</g>
<mask id="mask28_365_1542" style="mask-type:luminance" maskUnits="userSpaceOnUse" x="13" y="11" width="12" height="10">
<path d="M18.3493 20.4456L13.9026 15.9989V15.8449V15.6909L18.3493 11.2441L18.4498 11.3044L23.7135 14.2979C25.2203 15.1551 25.2203 16.5481 23.7135 17.4053L18.4498 20.3988L18.3493 20.4456Z" fill="white"/>
</mask>
<g mask="url(#mask28_365_1542)">
<path d="M15.5704 11.2378H15.3025V20.446H15.5704V11.2378Z" fill="#FCC900"/>
</g>
<mask id="mask29_365_1542" style="mask-type:luminance" maskUnits="userSpaceOnUse" x="13" y="11" width="12" height="10">
<path d="M18.3493 20.4456L13.9026 15.9989V15.8449V15.6909L18.3493 11.2441L18.4498 11.3044L23.7135 14.2979C25.2203 15.1551 25.2203 16.5481 23.7135 17.4053L18.4498 20.3988L18.3493 20.4456Z" fill="white"/>
</mask>
<g mask="url(#mask29_365_1542)">
<path d="M15.3023 11.2378H15.0344V20.446H15.3023V11.2378Z" fill="#FCC800"/>
</g>
<mask id="mask30_365_1542" style="mask-type:luminance" maskUnits="userSpaceOnUse" x="13" y="11" width="12" height="10">
<path d="M18.3493 20.4456L13.9026 15.9989V15.8449V15.6909L18.3493 11.2441L18.4498 11.3044L23.7135 14.2979C25.2203 15.1551 25.2203 16.5481 23.7135 17.4053L18.4498 20.3988L18.3493 20.4456Z" fill="white"/>
</mask>
<g mask="url(#mask30_365_1542)">
<path d="M15.0345 11.2378H14.7666V20.446H15.0345V11.2378Z" fill="#FCC800"/>
</g>
<mask id="mask31_365_1542" style="mask-type:luminance" maskUnits="userSpaceOnUse" x="13" y="11" width="12" height="10">
<path d="M18.3493 20.4456L13.9026 15.9989V15.8449V15.6909L18.3493 11.2441L18.4498 11.3044L23.7135 14.2979C25.2203 15.1551 25.2203 16.5481 23.7135 17.4053L18.4498 20.3988L18.3493 20.4456Z" fill="white"/>
</mask>
<g mask="url(#mask31_365_1542)">
<path d="M14.773 11.2378H14.5051V20.446H14.773V11.2378Z" fill="#FCC700"/>
</g>
<mask id="mask32_365_1542" style="mask-type:luminance" maskUnits="userSpaceOnUse" x="13" y="11" width="12" height="10">
<path d="M18.3493 20.4456L13.9026 15.9989V15.8449V15.6909L18.3493 11.2441L18.4498 11.3044L23.7135 14.2979C25.2203 15.1551 25.2203 16.5481 23.7135 17.4053L18.4498 20.3988L18.3493 20.4456Z" fill="white"/>
</mask>
<g mask="url(#mask32_365_1542)">
<path d="M14.5053 11.2378H14.2374V20.446H14.5053V11.2378Z" fill="#FCC600"/>
</g>
<mask id="mask33_365_1542" style="mask-type:luminance" maskUnits="userSpaceOnUse" x="13" y="11" width="12" height="10">
<path d="M18.3493 20.4456L13.9026 15.9989V15.8449V15.6909L18.3493 11.2441L18.4498 11.3044L23.7135 14.2979C25.2203 15.1551 25.2203 16.5481 23.7135 17.4053L18.4498 20.3988L18.3493 20.4456Z" fill="white"/>
</mask>
<g mask="url(#mask33_365_1542)">
<path d="M14.2375 11.2378H13.9696V20.446H14.2375V11.2378Z" fill="#FCC500"/>
</g>
<mask id="mask34_365_1542" style="mask-type:luminance" maskUnits="userSpaceOnUse" x="13" y="11" width="12" height="10">
<path d="M18.3493 20.4456L13.9026 15.9989V15.8449V15.6909L18.3493 11.2441L18.4498 11.3044L23.7135 14.2979C25.2203 15.1551 25.2203 16.5481 23.7135 17.4053L18.4498 20.3988L18.3493 20.4456Z" fill="white"/>
</mask>
<g mask="url(#mask34_365_1542)">
<path d="M13.9765 11.2378H13.9095V20.446H13.9765V11.2378Z" fill="#FCC400"/>
</g>
<mask id="mask35_365_1542" style="mask-type:luminance" maskUnits="userSpaceOnUse" x="0" y="15" width="19" height="15">
<path d="M18.4499 20.3856L13.9027 15.8384L0.495605 29.2522C0.991174 29.7746 1.80819 29.8415 2.73236 29.3192L18.4499 20.3856Z" fill="white"/>
</mask>
<g mask="url(#mask35_365_1542)">
<path d="M18.4498 20.7813L13.5142 15.8457H18.4498V20.7813Z" fill="#E7383D"/>
</g>
<mask id="mask36_365_1542" style="mask-type:luminance" maskUnits="userSpaceOnUse" x="0" y="15" width="19" height="15">
<path d="M18.4499 20.3856L13.9027 15.8384L0.495605 29.2522C0.991174 29.7746 1.80819 29.8415 2.73236 29.3192L18.4499 20.3856Z" fill="white"/>
</mask>
<g mask="url(#mask36_365_1542)">
<path d="M18.45 21.163L13.1327 15.8457H13.5144L18.45 20.7813V21.163Z" fill="#E7383D"/>
</g>
<mask id="mask37_365_1542" style="mask-type:luminance" maskUnits="userSpaceOnUse" x="0" y="15" width="19" height="15">
<path d="M18.4499 20.3856L13.9027 15.8384L0.495605 29.2522C0.991174 29.7746 1.80819 29.8415 2.73236 29.3192L18.4499 20.3856Z" fill="white"/>
</mask>
<g mask="url(#mask37_365_1542)">
<path d="M18.45 21.538L12.7577 15.8457H13.1327L18.45 21.163V21.538Z" fill="#E7383D"/>
</g>
<mask id="mask38_365_1542" style="mask-type:luminance" maskUnits="userSpaceOnUse" x="0" y="15" width="19" height="15">
<path d="M18.4499 20.3856L13.9027 15.8384L0.495605 29.2522C0.991174 29.7746 1.80819 29.8415 2.73236 29.3192L18.4499 20.3856Z" fill="white"/>
</mask>
<g mask="url(#mask38_365_1542)">
<path d="M18.4497 21.9131L12.3823 15.8457H12.7573L18.4497 21.538V21.9131Z" fill="#E7383E"/>
</g>
<mask id="mask39_365_1542" style="mask-type:luminance" maskUnits="userSpaceOnUse" x="0" y="15" width="19" height="15">
<path d="M18.4499 20.3856L13.9027 15.8384L0.495605 29.2522C0.991174 29.7746 1.80819 29.8415 2.73236 29.3192L18.4499 20.3856Z" fill="white"/>
</mask>
<g mask="url(#mask39_365_1542)">
<path d="M18.4497 22.2814V22.2881L12.0073 15.8457H12.014H12.3823L18.4497 21.9131V22.2814Z" fill="#E7383E"/>
</g>
<mask id="mask40_365_1542" style="mask-type:luminance" maskUnits="userSpaceOnUse" x="0" y="15" width="19" height="15">
<path d="M18.4499 20.3856L13.9027 15.8384L0.495605 29.2522C0.991174 29.7746 1.80819 29.8415 2.73236 29.3192L18.4499 20.3856Z" fill="white"/>
</mask>
<g mask="url(#mask40_365_1542)">
<path d="M12.0068 15.8462L11.8174 16.0356L18.2575 22.4757L18.4469 22.2863L12.0068 15.8462Z" fill="#E6383F"/>
</g>
<mask id="mask41_365_1542" style="mask-type:luminance" maskUnits="userSpaceOnUse" x="0" y="15" width="19" height="15">
<path d="M18.4499 20.3856L13.9027 15.8384L0.495605 29.2522C0.991174 29.7746 1.80819 29.8415 2.73236 29.3192L18.4499 20.3856Z" fill="white"/>
</mask>
<g mask="url(#mask41_365_1542)">
<path d="M11.8191 16.0323L11.6296 16.2217L18.0697 22.6618L18.2591 22.4723L11.8191 16.0323Z" fill="#E6373F"/>
</g>
<mask id="mask42_365_1542" style="mask-type:luminance" maskUnits="userSpaceOnUse" x="0" y="15" width="19" height="15">
<path d="M18.4499 20.3856L13.9027 15.8384L0.495605 29.2522C0.991174 29.7746 1.80819 29.8415 2.73236 29.3192L18.4499 20.3856Z" fill="white"/>
</mask>
<g mask="url(#mask42_365_1542)">
<path d="M11.632 16.2188L11.4426 16.4082L17.8827 22.8483L18.0721 22.6589L11.632 16.2188Z" fill="#E63740"/>
</g>
<mask id="mask43_365_1542" style="mask-type:luminance" maskUnits="userSpaceOnUse" x="0" y="15" width="19" height="15">
<path d="M18.4499 20.3856L13.9027 15.8384L0.495605 29.2522C0.991174 29.7746 1.80819 29.8415 2.73236 29.3192L18.4499 20.3856Z" fill="white"/>
</mask>
<g mask="url(#mask43_365_1542)">
<path d="M11.4448 16.4058L11.2554 16.5952L17.6955 23.0353L17.8849 22.8459L11.4448 16.4058Z" fill="#E63740"/>
</g>
<mask id="mask44_365_1542" style="mask-type:luminance" maskUnits="userSpaceOnUse" x="0" y="15" width="19" height="15">
<path d="M18.4499 20.3856L13.9027 15.8384L0.495605 29.2522C0.991174 29.7746 1.80819 29.8415 2.73236 29.3192L18.4499 20.3856Z" fill="white"/>
</mask>
<g mask="url(#mask44_365_1542)">
<path d="M11.2595 16.6026L11.0701 16.792L17.5102 23.2321L17.6996 23.0427L11.2595 16.6026Z" fill="#E53740"/>
</g>
<mask id="mask45_365_1542" style="mask-type:luminance" maskUnits="userSpaceOnUse" x="0" y="15" width="19" height="15">
<path d="M18.4499 20.3856L13.9027 15.8384L0.495605 29.2522C0.991174 29.7746 1.80819 29.8415 2.73236 29.3192L18.4499 20.3856Z" fill="white"/>
</mask>
<g mask="url(#mask45_365_1542)">
<path d="M11.0671 16.7964L10.8777 16.9858L17.3178 23.4259L17.5072 23.2365L11.0671 16.7964Z" fill="#E53741"/>
</g>
<mask id="mask46_365_1542" style="mask-type:luminance" maskUnits="userSpaceOnUse" x="0" y="15" width="19" height="15">
<path d="M18.4499 20.3856L13.9027 15.8384L0.495605 29.2522C0.991174 29.7746 1.80819 29.8415 2.73236 29.3192L18.4499 20.3856Z" fill="white"/>
</mask>
<g mask="url(#mask46_365_1542)">
<path d="M10.8796 16.9834L10.6902 17.1729L17.1303 23.6129L17.3197 23.4235L10.8796 16.9834Z" fill="#E53641"/>
</g>
<mask id="mask47_365_1542" style="mask-type:luminance" maskUnits="userSpaceOnUse" x="0" y="15" width="19" height="15">
<path d="M18.4499 20.3856L13.9027 15.8384L0.495605 29.2522C0.991174 29.7746 1.80819 29.8415 2.73236 29.3192L18.4499 20.3856Z" fill="white"/>
</mask>
<g mask="url(#mask47_365_1542)">
<path d="M10.6923 17.17L10.5029 17.3594L16.943 23.7995L17.1324 23.61L10.6923 17.17Z" fill="#E53642"/>
</g>
<mask id="mask48_365_1542" style="mask-type:luminance" maskUnits="userSpaceOnUse" x="0" y="15" width="19" height="15">
<path d="M18.4499 20.3856L13.9027 15.8384L0.495605 29.2522C0.991174 29.7746 1.80819 29.8415 2.73236 29.3192L18.4499 20.3856Z" fill="white"/>
</mask>
<g mask="url(#mask48_365_1542)">
<path d="M10.4995 17.3516L10.3101 17.541L16.7501 23.9811L16.9396 23.7917L10.4995 17.3516Z" fill="#E43642"/>
</g>
<mask id="mask49_365_1542" style="mask-type:luminance" maskUnits="userSpaceOnUse" x="0" y="15" width="19" height="15">
<path d="M18.4499 20.3856L13.9027 15.8384L0.495605 29.2522C0.991174 29.7746 1.80819 29.8415 2.73236 29.3192L18.4499 20.3856Z" fill="white"/>
</mask>
<g mask="url(#mask49_365_1542)">
<path d="M10.3125 17.5381L10.123 17.7275L16.5631 24.1676L16.7525 23.9782L10.3125 17.5381Z" fill="#E43643"/>
</g>
<mask id="mask50_365_1542" style="mask-type:luminance" maskUnits="userSpaceOnUse" x="0" y="15" width="19" height="15">
<path d="M18.4499 20.3856L13.9027 15.8384L0.495605 29.2522C0.991174 29.7746 1.80819 29.8415 2.73236 29.3192L18.4499 20.3856Z" fill="white"/>
</mask>
<g mask="url(#mask50_365_1542)">
<path d="M10.125 17.7256L9.93555 17.915L16.3756 24.3551L16.565 24.1657L10.125 17.7256Z" fill="#E43543"/>
</g>
<mask id="mask51_365_1542" style="mask-type:luminance" maskUnits="userSpaceOnUse" x="0" y="15" width="19" height="15">
<path d="M18.4499 20.3856L13.9027 15.8384L0.495605 29.2522C0.991174 29.7746 1.80819 29.8415 2.73236 29.3192L18.4499 20.3856Z" fill="white"/>
</mask>
<g mask="url(#mask51_365_1542)">
<path d="M9.93966 17.9219L9.75024 18.1113L16.1903 24.5514L16.3797 24.362L9.93966 17.9219Z" fill="#E43544"/>
</g>
<mask id="mask52_365_1542" style="mask-type:luminance" maskUnits="userSpaceOnUse" x="0" y="15" width="19" height="15">
<path d="M18.4499 20.3856L13.9027 15.8384L0.495605 29.2522C0.991174 29.7746 1.80819 29.8415 2.73236 29.3192L18.4499 20.3856Z" fill="white"/>
</mask>
<g mask="url(#mask52_365_1542)">
<path d="M9.74801 18.1158L9.55859 18.3052L15.9987 24.7453L16.1881 24.5558L9.74801 18.1158Z" fill="#E43544"/>
</g>
<mask id="mask53_365_1542" style="mask-type:luminance" maskUnits="userSpaceOnUse" x="0" y="15" width="19" height="15">
<path d="M18.4499 20.3856L13.9027 15.8384L0.495605 29.2522C0.991174 29.7746 1.80819 29.8415 2.73236 29.3192L18.4499 20.3856Z" fill="white"/>
</mask>
<g mask="url(#mask53_365_1542)">
<path d="M9.56051 18.3028L9.37109 18.4922L15.8112 24.9323L16.0006 24.7429L9.56051 18.3028Z" fill="#E33544"/>
</g>
<mask id="mask54_365_1542" style="mask-type:luminance" maskUnits="userSpaceOnUse" x="0" y="15" width="19" height="15">
<path d="M18.4499 20.3856L13.9027 15.8384L0.495605 29.2522C0.991174 29.7746 1.80819 29.8415 2.73236 29.3192L18.4499 20.3856Z" fill="white"/>
</mask>
<g mask="url(#mask54_365_1542)">
<path d="M9.37276 18.4893L9.18335 18.6787L15.6234 25.1188L15.8128 24.9294L9.37276 18.4893Z" fill="#E33545"/>
</g>
<mask id="mask55_365_1542" style="mask-type:luminance" maskUnits="userSpaceOnUse" x="0" y="15" width="19" height="15">
<path d="M18.4499 20.3856L13.9027 15.8384L0.495605 29.2522C0.991174 29.7746 1.80819 29.8415 2.73236 29.3192L18.4499 20.3856Z" fill="white"/>
</mask>
<g mask="url(#mask55_365_1542)">
<path d="M9.18575 18.6768L8.99634 18.8662L15.4364 25.3063L15.6258 25.1169L9.18575 18.6768Z" fill="#E33445"/>
</g>
<mask id="mask56_365_1542" style="mask-type:luminance" maskUnits="userSpaceOnUse" x="0" y="15" width="19" height="15">
<path d="M18.4499 20.3856L13.9027 15.8384L0.495605 29.2522C0.991174 29.7746 1.80819 29.8415 2.73236 29.3192L18.4499 20.3856Z" fill="white"/>
</mask>
<g mask="url(#mask56_365_1542)">
<path d="M8.99337 18.8584L8.80396 19.0479L15.244 25.4879L15.4335 25.2985L8.99337 18.8584Z" fill="#E33446"/>
</g>
<mask id="mask57_365_1542" style="mask-type:luminance" maskUnits="userSpaceOnUse" x="0" y="15" width="19" height="15">
<path d="M18.4499 20.3856L13.9027 15.8384L0.495605 29.2522C0.991174 29.7746 1.80819 29.8415 2.73236 29.3192L18.4499 20.3856Z" fill="white"/>
</mask>
<g mask="url(#mask57_365_1542)">
<path d="M8.80587 19.0459L8.61646 19.2354L15.0565 25.6754L15.246 25.486L8.80587 19.0459Z" fill="#E23446"/>
</g>
<mask id="mask58_365_1542" style="mask-type:luminance" maskUnits="userSpaceOnUse" x="0" y="15" width="19" height="15">
<path d="M18.4499 20.3856L13.9027 15.8384L0.495605 29.2522C0.991174 29.7746 1.80819 29.8415 2.73236 29.3192L18.4499 20.3856Z" fill="white"/>
</mask>
<g mask="url(#mask58_365_1542)">
<path d="M8.61861 19.232L8.4292 19.4214L14.8693 25.8615L15.0587 25.6721L8.61861 19.232Z" fill="#E23447"/>
</g>
<mask id="mask59_365_1542" style="mask-type:luminance" maskUnits="userSpaceOnUse" x="0" y="15" width="19" height="15">
<path d="M18.4499 20.3856L13.9027 15.8384L0.495605 29.2522C0.991174 29.7746 1.80819 29.8415 2.73236 29.3192L18.4499 20.3856Z" fill="white"/>
</mask>
<g mask="url(#mask59_365_1542)">
<path d="M8.43331 19.4283L8.2439 19.6177L14.684 26.0578L14.8734 25.8683L8.43331 19.4283Z" fill="#E23347"/>
</g>
<mask id="mask60_365_1542" style="mask-type:luminance" maskUnits="userSpaceOnUse" x="0" y="15" width="19" height="15">
<path d="M18.4499 20.3856L13.9027 15.8384L0.495605 29.2522C0.991174 29.7746 1.80819 29.8415 2.73236 29.3192L18.4499 20.3856Z" fill="white"/>
</mask>
<g mask="url(#mask60_365_1542)">
<path d="M8.24068 19.6226L8.05127 19.812L14.4914 26.2521L14.6808 26.0627L8.24068 19.6226Z" fill="#E23347"/>
</g>
<mask id="mask61_365_1542" style="mask-type:luminance" maskUnits="userSpaceOnUse" x="0" y="15" width="19" height="15">
<path d="M18.4499 20.3856L13.9027 15.8384L0.495605 29.2522C0.991174 29.7746 1.80819 29.8415 2.73236 29.3192L18.4499 20.3856Z" fill="white"/>
</mask>
<g mask="url(#mask61_365_1542)">
<path d="M8.0544 19.8091L7.86499 19.9985L14.3051 26.4386L14.4945 26.2492L8.0544 19.8091Z" fill="#E13348"/>
</g>
<mask id="mask62_365_1542" style="mask-type:luminance" maskUnits="userSpaceOnUse" x="0" y="15" width="19" height="15">
<path d="M18.4499 20.3856L13.9027 15.8384L0.495605 29.2522C0.991174 29.7746 1.80819 29.8415 2.73236 29.3192L18.4499 20.3856Z" fill="white"/>
</mask>
<g mask="url(#mask62_365_1542)">
<path d="M7.86593 19.9956L7.67651 20.1851L14.1166 26.6251L14.306 26.4357L7.86593 19.9956Z" fill="#E13348"/>
</g>
<mask id="mask63_365_1542" style="mask-type:luminance" maskUnits="userSpaceOnUse" x="0" y="15" width="19" height="15">
<path d="M18.4499 20.3856L13.9027 15.8384L0.495605 29.2522C0.991174 29.7746 1.80819 29.8415 2.73236 29.3192L18.4499 20.3856Z" fill="white"/>
</mask>
<g mask="url(#mask63_365_1542)">
<path d="M7.67379 20.1778L7.48438 20.3672L13.9245 26.8073L14.1139 26.6179L7.67379 20.1778Z" fill="#E13349"/>
</g>
<mask id="mask64_365_1542" style="mask-type:luminance" maskUnits="userSpaceOnUse" x="0" y="15" width="19" height="15">
<path d="M18.4499 20.3856L13.9027 15.8384L0.495605 29.2522C0.991174 29.7746 1.80819 29.8415 2.73236 29.3192L18.4499 20.3856Z" fill="white"/>
</mask>
<g mask="url(#mask64_365_1542)">
<path d="M7.48678 20.3648L7.29736 20.5542L13.7374 26.9943L13.9269 26.8049L7.48678 20.3648Z" fill="#E13249"/>
</g>
<mask id="mask65_365_1542" style="mask-type:luminance" maskUnits="userSpaceOnUse" x="0" y="15" width="19" height="15">
<path d="M18.4499 20.3856L13.9027 15.8384L0.495605 29.2522C0.991174 29.7746 1.80819 29.8415 2.73236 29.3192L18.4499 20.3856Z" fill="white"/>
</mask>
<g mask="url(#mask65_365_1542)">
<path d="M7.29891 20.5518L7.1095 20.7412L13.5496 27.1813L13.739 26.9919L7.29891 20.5518Z" fill="#E03249"/>
</g>
<mask id="mask66_365_1542" style="mask-type:luminance" maskUnits="userSpaceOnUse" x="0" y="15" width="19" height="15">
<path d="M18.4499 20.3856L13.9027 15.8384L0.495605 29.2522C0.991174 29.7746 1.80819 29.8415 2.73236 29.3192L18.4499 20.3856Z" fill="white"/>
</mask>
<g mask="url(#mask66_365_1542)">
<path d="M7.11446 20.7481L6.92505 20.9375L13.3651 27.3776L13.5545 27.1882L7.11446 20.7481Z" fill="#E0324A"/>
</g>
<mask id="mask67_365_1542" style="mask-type:luminance" maskUnits="userSpaceOnUse" x="0" y="15" width="19" height="15">
<path d="M18.4499 20.3856L13.9027 15.8384L0.495605 29.2522C0.991174 29.7746 1.80819 29.8415 2.73236 29.3192L18.4499 20.3856Z" fill="white"/>
</mask>
<g mask="url(#mask67_365_1542)">
<path d="M6.92208 20.9414L6.73267 21.1309L13.1727 27.5709L13.3622 27.3815L6.92208 20.9414Z" fill="#E0324A"/>
</g>
<mask id="mask68_365_1542" style="mask-type:luminance" maskUnits="userSpaceOnUse" x="0" y="15" width="19" height="15">
<path d="M18.4499 20.3856L13.9027 15.8384L0.495605 29.2522C0.991174 29.7746 1.80819 29.8415 2.73236 29.3192L18.4499 20.3856Z" fill="white"/>
</mask>
<g mask="url(#mask68_365_1542)">
<path d="M6.73458 21.1289L6.54517 21.3184L12.9853 27.7584L13.1747 27.569L6.73458 21.1289Z" fill="#E0314B"/>
</g>
<mask id="mask69_365_1542" style="mask-type:luminance" maskUnits="userSpaceOnUse" x="0" y="15" width="19" height="15">
<path d="M18.4499 20.3856L13.9027 15.8384L0.495605 29.2522C0.991174 29.7746 1.80819 29.8415 2.73236 29.3192L18.4499 20.3856Z" fill="white"/>
</mask>
<g mask="url(#mask69_365_1542)">
<path d="M6.54684 21.315L6.35742 21.5044L12.7975 27.9445L12.9869 27.7551L6.54684 21.315Z" fill="#DF314B"/>
</g>
<mask id="mask70_365_1542" style="mask-type:luminance" maskUnits="userSpaceOnUse" x="0" y="15" width="19" height="15">
<path d="M18.4499 20.3856L13.9027 15.8384L0.495605 29.2522C0.991174 29.7746 1.80819 29.8415 2.73236 29.3192L18.4499 20.3856Z" fill="white"/>
</mask>
<g mask="url(#mask70_365_1542)">
<path d="M6.35482 21.4976L6.16541 21.687L12.6055 28.1271L12.7949 27.9377L6.35482 21.4976Z" fill="#DF314B"/>
</g>
<mask id="mask71_365_1542" style="mask-type:luminance" maskUnits="userSpaceOnUse" x="0" y="15" width="19" height="15">
<path d="M18.4499 20.3856L13.9027 15.8384L0.495605 29.2522C0.991174 29.7746 1.80819 29.8415 2.73236 29.3192L18.4499 20.3856Z" fill="white"/>
</mask>
<g mask="url(#mask71_365_1542)">
<path d="M6.1672 21.6846L5.97778 21.874L12.4179 28.3141L12.6073 28.1247L6.1672 21.6846Z" fill="#DF314C"/>
</g>
<mask id="mask72_365_1542" style="mask-type:luminance" maskUnits="userSpaceOnUse" x="0" y="15" width="19" height="15">
<path d="M18.4499 20.3856L13.9027 15.8384L0.495605 29.2522C0.991174 29.7746 1.80819 29.8415 2.73236 29.3192L18.4499 20.3856Z" fill="white"/>
</mask>
<g mask="url(#mask72_365_1542)">
<path d="M5.9797 21.8716L5.79028 22.061L12.2304 28.5011L12.4198 28.3117L5.9797 21.8716Z" fill="#DE304C"/>
</g>
<mask id="mask73_365_1542" style="mask-type:luminance" maskUnits="userSpaceOnUse" x="0" y="15" width="19" height="15">
<path d="M18.4499 20.3856L13.9027 15.8384L0.495605 29.2522C0.991174 29.7746 1.80819 29.8415 2.73236 29.3192L18.4499 20.3856Z" fill="white"/>
</mask>
<g mask="url(#mask73_365_1542)">
<path d="M5.79195 22.0581L5.60254 22.2476L12.0426 28.6876L12.232 28.4982L5.79195 22.0581Z" fill="#DE304C"/>
</g>
<mask id="mask74_365_1542" style="mask-type:luminance" maskUnits="userSpaceOnUse" x="0" y="15" width="19" height="15">
<path d="M18.4499 20.3856L13.9027 15.8384L0.495605 29.2522C0.991174 29.7746 1.80819 29.8415 2.73236 29.3192L18.4499 20.3856Z" fill="white"/>
</mask>
<g mask="url(#mask74_365_1542)">
<path d="M5.6075 22.2549L5.41809 22.4443L11.8582 28.8844L12.0476 28.695L5.6075 22.2549Z" fill="#DE304D"/>
</g>
<mask id="mask75_365_1542" style="mask-type:luminance" maskUnits="userSpaceOnUse" x="0" y="15" width="19" height="15">
<path d="M18.4499 20.3856L13.9027 15.8384L0.495605 29.2522C0.991174 29.7746 1.80819 29.8415 2.73236 29.3192L18.4499 20.3856Z" fill="white"/>
</mask>
<g mask="url(#mask75_365_1542)">
<path d="M5.41524 22.4488L5.22583 22.6382L11.6659 29.0783L11.8553 28.8889L5.41524 22.4488Z" fill="#DE304D"/>
</g>
<mask id="mask76_365_1542" style="mask-type:luminance" maskUnits="userSpaceOnUse" x="0" y="15" width="19" height="15">
<path d="M18.4499 20.3856L13.9027 15.8384L0.495605 29.2522C0.991174 29.7746 1.80819 29.8415 2.73236 29.3192L18.4499 20.3856Z" fill="white"/>
</mask>
<g mask="url(#mask76_365_1542)">
<path d="M5.22774 22.6353L5.03833 22.8247L11.4784 29.2648L11.6678 29.0754L5.22774 22.6353Z" fill="#DD2F4E"/>
</g>
<mask id="mask77_365_1542" style="mask-type:luminance" maskUnits="userSpaceOnUse" x="0" y="15" width="19" height="15">
<path d="M18.4499 20.3856L13.9027 15.8384L0.495605 29.2522C0.991174 29.7746 1.80819 29.8415 2.73236 29.3192L18.4499 20.3856Z" fill="white"/>
</mask>
<g mask="url(#mask77_365_1542)">
<path d="M5.04024 22.8228L4.85083 23.0122L11.2909 29.4523L11.4803 29.2629L5.04024 22.8228Z" fill="#DD2F4E"/>
</g>
<mask id="mask78_365_1542" style="mask-type:luminance" maskUnits="userSpaceOnUse" x="0" y="15" width="19" height="15">
<path d="M18.4499 20.3856L13.9027 15.8384L0.495605 29.2522C0.991174 29.7746 1.80819 29.8415 2.73236 29.3192L18.4499 20.3856Z" fill="white"/>
</mask>
<g mask="url(#mask78_365_1542)">
<path d="M4.84811 23.0039L4.65869 23.1934L11.0988 29.6334L11.2882 29.444L4.84811 23.0039Z" fill="#DD2F4E"/>
</g>
<mask id="mask79_365_1542" style="mask-type:luminance" maskUnits="userSpaceOnUse" x="0" y="15" width="19" height="15">
<path d="M18.4499 20.3856L13.9027 15.8384L0.495605 29.2522C0.991174 29.7746 1.80819 29.8415 2.73236 29.3192L18.4499 20.3856Z" fill="white"/>
</mask>
<g mask="url(#mask79_365_1542)">
<path d="M4.66036 23.191L4.47095 23.3804L10.911 29.8205L11.1004 29.631L4.66036 23.191Z" fill="#DD2F4F"/>
</g>
<mask id="mask80_365_1542" style="mask-type:luminance" maskUnits="userSpaceOnUse" x="0" y="15" width="19" height="15">
<path d="M18.4499 20.3856L13.9027 15.8384L0.495605 29.2522C0.991174 29.7746 1.80819 29.8415 2.73236 29.3192L18.4499 20.3856Z" fill="white"/>
</mask>
<g mask="url(#mask80_365_1542)">
<path d="M10.9159 29.8218L10.8891 29.8486H10.561L4.28601 23.5803L4.47352 23.3794L10.9159 29.8218Z" fill="#DC2F4F"/>
</g>
<mask id="mask81_365_1542" style="mask-type:luminance" maskUnits="userSpaceOnUse" x="0" y="15" width="19" height="15">
<path d="M18.4499 20.3856L13.9027 15.8384L0.495605 29.2522C0.991174 29.7746 1.80819 29.8415 2.73236 29.3192L18.4499 20.3856Z" fill="white"/>
</mask>
<g mask="url(#mask81_365_1542)">
<path d="M10.1791 29.8483L4.09839 23.7609L4.2859 23.5801L10.5609 29.8483H10.1791Z" fill="#DC2E4F"/>
</g>
<mask id="mask82_365_1542" style="mask-type:luminance" maskUnits="userSpaceOnUse" x="0" y="15" width="19" height="15">
<path d="M18.4499 20.3856L13.9027 15.8384L0.495605 29.2522C0.991174 29.7746 1.80819 29.8415 2.73236 29.3192L18.4499 20.3856Z" fill="white"/>
</mask>
<g mask="url(#mask82_365_1542)">
<path d="M9.80412 29.8487L3.90417 23.9487L4.09838 23.7612L10.1791 29.8487H9.80412Z" fill="#DC2E50"/>
</g>
<mask id="mask83_365_1542" style="mask-type:luminance" maskUnits="userSpaceOnUse" x="0" y="15" width="19" height="15">
<path d="M18.4499 20.3856L13.9027 15.8384L0.495605 29.2522C0.991174 29.7746 1.80819 29.8415 2.73236 29.3192L18.4499 20.3856Z" fill="white"/>
</mask>
<g mask="url(#mask83_365_1542)">
<path d="M9.42923 29.8482L3.7168 24.1358L3.90431 23.9482L9.80425 29.8482H9.42923Z" fill="#DC2E50"/>
</g>
<mask id="mask84_365_1542" style="mask-type:luminance" maskUnits="userSpaceOnUse" x="0" y="15" width="19" height="15">
<path d="M18.4499 20.3856L13.9027 15.8384L0.495605 29.2522C0.991174 29.7746 1.80819 29.8415 2.73236 29.3192L18.4499 20.3856Z" fill="white"/>
</mask>
<g mask="url(#mask84_365_1542)">
<path d="M9.05434 29.8482L3.52942 24.3233L3.71693 24.1357L9.42936 29.8482H9.05434Z" fill="#DB2E50"/>
</g>
<mask id="mask85_365_1542" style="mask-type:luminance" maskUnits="userSpaceOnUse" x="0" y="15" width="19" height="15">
<path d="M18.4499 20.3856L13.9027 15.8384L0.495605 29.2522C0.991174 29.7746 1.80819 29.8415 2.73236 29.3192L18.4499 20.3856Z" fill="white"/>
</mask>
<g mask="url(#mask85_365_1542)">
<path d="M8.6725 29.8482L3.3418 24.5108L3.52931 24.3232L9.05423 29.8482H8.6725Z" fill="#DB2D51"/>
</g>
<mask id="mask86_365_1542" style="mask-type:luminance" maskUnits="userSpaceOnUse" x="0" y="15" width="19" height="15">
<path d="M18.4499 20.3856L13.9027 15.8384L0.495605 29.2522C0.991174 29.7746 1.80819 29.8415 2.73236 29.3192L18.4499 20.3856Z" fill="white"/>
</mask>
<g mask="url(#mask86_365_1542)">
<path d="M8.29737 29.8481L3.15417 24.705L3.34169 24.5107L8.67239 29.8481H8.29737Z" fill="#DB2D51"/>
</g>
<mask id="mask87_365_1542" style="mask-type:luminance" maskUnits="userSpaceOnUse" x="0" y="15" width="19" height="15">
<path d="M18.4499 20.3856L13.9027 15.8384L0.495605 29.2522C0.991174 29.7746 1.80819 29.8415 2.73236 29.3192L18.4499 20.3856Z" fill="white"/>
</mask>
<g mask="url(#mask87_365_1542)">
<path d="M7.92224 29.8483L2.96655 24.8993L3.15407 24.7051L8.29726 29.8483H7.92224Z" fill="#DB2D51"/>
</g>
<mask id="mask88_365_1542" style="mask-type:luminance" maskUnits="userSpaceOnUse" x="0" y="15" width="19" height="15">
<path d="M18.4499 20.3856L13.9027 15.8384L0.495605 29.2522C0.991174 29.7746 1.80819 29.8415 2.73236 29.3192L18.4499 20.3856Z" fill="white"/>
</mask>
<g mask="url(#mask88_365_1542)">
<path d="M7.54735 29.8479L2.77917 25.0864L2.96669 24.8989L7.92237 29.8479H7.54735Z" fill="#DA2D52"/>
</g>
<mask id="mask89_365_1542" style="mask-type:luminance" maskUnits="userSpaceOnUse" x="0" y="15" width="19" height="15">
<path d="M18.4499 20.3856L13.9027 15.8384L0.495605 29.2522C0.991174 29.7746 1.80819 29.8415 2.73236 29.3192L18.4499 20.3856Z" fill="white"/>
</mask>
<g mask="url(#mask89_365_1542)">
<path d="M7.16576 29.8484L2.5918 25.2677L2.77931 25.0869L7.54748 29.8484H7.16576Z" fill="#DA2C52"/>
</g>
<mask id="mask90_365_1542" style="mask-type:luminance" maskUnits="userSpaceOnUse" x="0" y="15" width="19" height="15">
<path d="M18.4499 20.3856L13.9027 15.8384L0.495605 29.2522C0.991174 29.7746 1.80819 29.8415 2.73236 29.3192L18.4499 20.3856Z" fill="white"/>
</mask>
<g mask="url(#mask90_365_1542)">
<path d="M6.79073 29.8487L2.39758 25.4556L2.59179 25.2681L7.16575 29.8487H6.79073Z" fill="#DA2C52"/>
</g>
<mask id="mask91_365_1542" style="mask-type:luminance" maskUnits="userSpaceOnUse" x="0" y="15" width="19" height="15">
<path d="M18.4499 20.3856L13.9027 15.8384L0.495605 29.2522C0.991174 29.7746 1.80819 29.8415 2.73236 29.3192L18.4499 20.3856Z" fill="white"/>
</mask>
<g mask="url(#mask91_365_1542)">
<path d="M6.41559 29.8477L2.20996 25.6421L2.39747 25.4546L6.79062 29.8477H6.41559Z" fill="#DA2C53"/>
</g>
<mask id="mask92_365_1542" style="mask-type:luminance" maskUnits="userSpaceOnUse" x="0" y="15" width="19" height="15">
<path d="M18.4499 20.3856L13.9027 15.8384L0.495605 29.2522C0.991174 29.7746 1.80819 29.8415 2.73236 29.3192L18.4499 20.3856Z" fill="white"/>
</mask>
<g mask="url(#mask92_365_1542)">
<path d="M6.03376 29.8482L2.02234 25.8301L2.20985 25.6426L6.41548 29.8482H6.03376Z" fill="#D92B53"/>
</g>
<mask id="mask93_365_1542" style="mask-type:luminance" maskUnits="userSpaceOnUse" x="0" y="15" width="19" height="15">
<path d="M18.4499 20.3856L13.9027 15.8384L0.495605 29.2522C0.991174 29.7746 1.80819 29.8415 2.73236 29.3192L18.4499 20.3856Z" fill="white"/>
</mask>
<g mask="url(#mask93_365_1542)">
<path d="M5.65887 29.8482L1.83496 26.0176L2.02247 25.8301L6.0339 29.8482H5.65887Z" fill="#D92B53"/>
</g>
<mask id="mask94_365_1542" style="mask-type:luminance" maskUnits="userSpaceOnUse" x="0" y="15" width="19" height="15">
<path d="M18.4499 20.3856L13.9027 15.8384L0.495605 29.2522C0.991174 29.7746 1.80819 29.8415 2.73236 29.3192L18.4499 20.3856Z" fill="white"/>
</mask>
<g mask="url(#mask94_365_1542)">
<path d="M5.28398 29.8482L1.64758 26.2118L1.8351 26.0176L5.65901 29.8482H5.28398Z" fill="#D92B54"/>
</g>
<mask id="mask95_365_1542" style="mask-type:luminance" maskUnits="userSpaceOnUse" x="0" y="15" width="19" height="15">
<path d="M18.4499 20.3856L13.9027 15.8384L0.495605 29.2522C0.991174 29.7746 1.80819 29.8415 2.73236 29.3192L18.4499 20.3856Z" fill="white"/>
</mask>
<g mask="url(#mask95_365_1542)">
<path d="M4.90885 29.8483L1.45996 26.4061L1.64747 26.2119L5.28387 29.8483H4.90885Z" fill="#D92B54"/>
</g>
<mask id="mask96_365_1542" style="mask-type:luminance" maskUnits="userSpaceOnUse" x="0" y="15" width="19" height="15">
<path d="M18.4499 20.3856L13.9027 15.8384L0.495605 29.2522C0.991174 29.7746 1.80819 29.8415 2.73236 29.3192L18.4499 20.3856Z" fill="white"/>
</mask>
<g mask="url(#mask96_365_1542)">
<path d="M4.5269 29.848L1.27222 26.5933L1.45973 26.4058L4.90862 29.848H4.5269Z" fill="#D92A54"/>
</g>
<mask id="mask97_365_1542" style="mask-type:luminance" maskUnits="userSpaceOnUse" x="0" y="15" width="19" height="15">
<path d="M18.4499 20.3856L13.9027 15.8384L0.495605 29.2522C0.991174 29.7746 1.80819 29.8415 2.73236 29.3192L18.4499 20.3856Z" fill="white"/>
</mask>
<g mask="url(#mask97_365_1542)">
<path d="M4.15199 29.8484L1.07812 26.7746L1.27233 26.5938L4.52701 29.8484H4.15199Z" fill="#D82A55"/>
</g>
<mask id="mask98_365_1542" style="mask-type:luminance" maskUnits="userSpaceOnUse" x="0" y="15" width="19" height="15">
<path d="M18.4499 20.3856L13.9027 15.8384L0.495605 29.2522C0.991174 29.7746 1.80819 29.8415 2.73236 29.3192L18.4499 20.3856Z" fill="white"/>
</mask>
<g mask="url(#mask98_365_1542)">
<path d="M3.7771 29.8488L0.890747 26.9624L1.07826 26.7749L4.15212 29.8488H3.7771Z" fill="#D82A55"/>
</g>
<mask id="mask99_365_1542" style="mask-type:luminance" maskUnits="userSpaceOnUse" x="0" y="15" width="19" height="15">
<path d="M18.4499 20.3856L13.9027 15.8384L0.495605 29.2522C0.991174 29.7746 1.80819 29.8415 2.73236 29.3192L18.4499 20.3856Z" fill="white"/>
</mask>
<g mask="url(#mask99_365_1542)">
<path d="M3.40221 29.8478L0.703369 27.1489L0.890882 26.9614L3.77723 29.8478H3.40221Z" fill="#D82A55"/>
</g>
<mask id="mask100_365_1542" style="mask-type:luminance" maskUnits="userSpaceOnUse" x="0" y="15" width="19" height="15">
<path d="M18.4499 20.3856L13.9027 15.8384L0.495605 29.2522C0.991174 29.7746 1.80819 29.8415 2.73236 29.3192L18.4499 20.3856Z" fill="white"/>
</mask>
<g mask="url(#mask100_365_1542)">
<path d="M3.02001 29.8483L0.515381 27.3369L0.702893 27.1494L3.40173 29.8483H3.02001Z" fill="#D82956"/>
</g>
<mask id="mask101_365_1542" style="mask-type:luminance" maskUnits="userSpaceOnUse" x="0" y="15" width="19" height="15">
<path d="M18.4499 20.3856L13.9027 15.8384L0.495605 29.2522C0.991174 29.7746 1.80819 29.8415 2.73236 29.3192L18.4499 20.3856Z" fill="white"/>
</mask>
<g mask="url(#mask101_365_1542)">
<path d="M2.6453 29.8482L0.495605 27.6918V27.3637L0.515696 27.3369L3.02032 29.8482H2.6453Z" fill="#D72956"/>
</g>
<mask id="mask102_365_1542" style="mask-type:luminance" maskUnits="userSpaceOnUse" x="0" y="15" width="19" height="15">
<path d="M18.4499 20.3856L13.9027 15.8384L0.495605 29.2522C0.991174 29.7746 1.80819 29.8415 2.73236 29.3192L18.4499 20.3856Z" fill="white"/>
</mask>
<g mask="url(#mask102_365_1542)">
<path d="M2.27028 29.8483L0.495605 28.0803V27.6919L2.6453 29.8483H2.27028Z" fill="#D72956"/>
</g>
<mask id="mask103_365_1542" style="mask-type:luminance" maskUnits="userSpaceOnUse" x="0" y="15" width="19" height="15">
<path d="M18.4499 20.3856L13.9027 15.8384L0.495605 29.2522C0.991174 29.7746 1.80819 29.8415 2.73236 29.3192L18.4499 20.3856Z" fill="white"/>
</mask>
<g mask="url(#mask103_365_1542)">
<path d="M1.89525 29.8476L0.495605 28.4479V28.0796L2.27028 29.8476H1.89525Z" fill="#D72857"/>
</g>
<mask id="mask104_365_1542" style="mask-type:luminance" maskUnits="userSpaceOnUse" x="0" y="15" width="19" height="15">
<path d="M18.4499 20.3856L13.9027 15.8384L0.495605 29.2522C0.991174 29.7746 1.80819 29.8415 2.73236 29.3192L18.4499 20.3856Z" fill="white"/>
</mask>
<g mask="url(#mask104_365_1542)">
<path d="M1.51353 29.8484L0.495605 28.8238V28.4487L1.89525 29.8484H1.51353Z" fill="#D72857"/>
</g>
<mask id="mask105_365_1542" style="mask-type:luminance" maskUnits="userSpaceOnUse" x="0" y="15" width="19" height="15">
<path d="M18.4499 20.3856L13.9027 15.8384L0.495605 29.2522C0.991174 29.7746 1.80819 29.8415 2.73236 29.3192L18.4499 20.3856Z" fill="white"/>
</mask>
<g mask="url(#mask105_365_1542)">
<path d="M1.1385 29.8479L0.495605 29.1983V28.8232L1.51353 29.8479H1.1385Z" fill="#D62857"/>
</g>
<mask id="mask106_365_1542" style="mask-type:luminance" maskUnits="userSpaceOnUse" x="0" y="15" width="19" height="15">
<path d="M18.4499 20.3856L13.9027 15.8384L0.495605 29.2522C0.991174 29.7746 1.80819 29.8415 2.73236 29.3192L18.4499 20.3856Z" fill="white"/>
</mask>
<g mask="url(#mask106_365_1542)">
<path d="M0.76348 29.8483L0.495605 29.5871V29.1987L1.1385 29.8483H0.76348Z" fill="#D62857"/>
</g>
<mask id="mask107_365_1542" style="mask-type:luminance" maskUnits="userSpaceOnUse" x="0" y="15" width="19" height="15">
<path d="M18.4499 20.3856L13.9027 15.8384L0.495605 29.2522C0.991174 29.7746 1.80819 29.8415 2.73236 29.3192L18.4499 20.3856Z" fill="white"/>
</mask>
<g mask="url(#mask107_365_1542)">
<path d="M0.495605 29.5864L0.76348 29.8476H0.495605V29.5864Z" fill="#D62758"/>
</g>
<mask id="mask108_365_1542" style="mask-type:luminance" maskUnits="userSpaceOnUse" x="0" y="2" width="19" height="14">
<path d="M18.4499 11.2973L2.73236 2.3637C1.80819 1.84134 0.991174 1.90162 0.495605 2.43067L13.9094 15.8445L18.4499 11.2973Z" fill="white"/>
</mask>
<g mask="url(#mask108_365_1542)">
<path d="M1.16529 1.84131L0.495605 2.511V1.84131H1.16529Z" fill="#64B05F"/>
</g>
<mask id="mask109_365_1542" style="mask-type:luminance" maskUnits="userSpaceOnUse" x="0" y="2" width="19" height="14">
<path d="M18.4499 11.2973L2.73236 2.3637C1.80819 1.84134 0.991174 1.90162 0.495605 2.43067L13.9094 15.8445L18.4499 11.2973Z" fill="white"/>
</mask>
<g mask="url(#mask109_365_1542)">
<path d="M1.88186 1.84131L0.495605 3.22756V2.511L1.16529 1.84131H1.88186Z" fill="#65B15F"/>
</g>
<mask id="mask110_365_1542" style="mask-type:luminance" maskUnits="userSpaceOnUse" x="0" y="2" width="19" height="14">
<path d="M18.4499 11.2973L2.73236 2.3637C1.80819 1.84134 0.991174 1.90162 0.495605 2.43067L13.9094 15.8445L18.4499 11.2973Z" fill="white"/>
</mask>
<g mask="url(#mask110_365_1542)">
<path d="M2.59173 1.84131L0.495605 3.93743V3.22756L1.88186 1.84131H2.59173Z" fill="#66B15F"/>
</g>
<mask id="mask111_365_1542" style="mask-type:luminance" maskUnits="userSpaceOnUse" x="0" y="2" width="19" height="14">
<path d="M18.4499 11.2973L2.73236 2.3637C1.80819 1.84134 0.991174 1.90162 0.495605 2.43067L13.9094 15.8445L18.4499 11.2973Z" fill="white"/>
</mask>
<g mask="url(#mask111_365_1542)">
<path d="M3.30829 1.84131L0.65633 4.48657L0.495605 4.32585V3.93743L2.59173 1.84131H3.30829Z" fill="#68B25F"/>
</g>
<mask id="mask112_365_1542" style="mask-type:luminance" maskUnits="userSpaceOnUse" x="0" y="2" width="19" height="14">
<path d="M18.4499 11.2973L2.73236 2.3637C1.80819 1.84134 0.991174 1.90162 0.495605 2.43067L13.9094 15.8445L18.4499 11.2973Z" fill="white"/>
</mask>
<g mask="url(#mask112_365_1542)">
<path d="M4.0249 1.84131L1.018 4.8482L0.656372 4.48657L3.30833 1.84131H4.0249Z" fill="#69B35F"/>
</g>
<mask id="mask113_365_1542" style="mask-type:luminance" maskUnits="userSpaceOnUse" x="0" y="2" width="19" height="14">
<path d="M18.4499 11.2973L2.73236 2.3637C1.80819 1.84134 0.991174 1.90162 0.495605 2.43067L13.9094 15.8445L18.4499 11.2973Z" fill="white"/>
</mask>
<g mask="url(#mask113_365_1542)">
<path d="M4.73458 1.84131L1.37276 5.20314L1.01782 4.8482L4.02472 1.84131H4.73458Z" fill="#6AB35E"/>
</g>
<mask id="mask114_365_1542" style="mask-type:luminance" maskUnits="userSpaceOnUse" x="0" y="2" width="19" height="14">
<path d="M18.4499 11.2973L2.73236 2.3637C1.80819 1.84134 0.991174 1.90162 0.495605 2.43067L13.9094 15.8445L18.4499 11.2973Z" fill="white"/>
</mask>
<g mask="url(#mask114_365_1542)">
<path d="M5.45168 1.84131L1.72823 5.55807L1.37329 5.20314L4.73512 1.84131H5.45168Z" fill="#6CB45E"/>
</g>
<mask id="mask115_365_1542" style="mask-type:luminance" maskUnits="userSpaceOnUse" x="0" y="2" width="19" height="14">
<path d="M18.4499 11.2973L2.73236 2.3637C1.80819 1.84134 0.991174 1.90162 0.495605 2.43067L13.9094 15.8445L18.4499 11.2973Z" fill="white"/>
</mask>
<g mask="url(#mask115_365_1542)">
<path d="M6.16793 1.84131L2.08954 5.9197L1.72791 5.55807L5.45136 1.84131H6.16793Z" fill="#6DB45E"/>
</g>
<mask id="mask116_365_1542" style="mask-type:luminance" maskUnits="userSpaceOnUse" x="0" y="2" width="19" height="14">
<path d="M18.4499 11.2973L2.73236 2.3637C1.80819 1.84134 0.991174 1.90162 0.495605 2.43067L13.9094 15.8445L18.4499 11.2973Z" fill="white"/>
</mask>
<g mask="url(#mask116_365_1542)">
<path d="M6.87762 1.84131L2.44429 6.27464L2.08936 5.9197L6.16775 1.84131H6.87762Z" fill="#6EB55E"/>
</g>
<mask id="mask117_365_1542" style="mask-type:luminance" maskUnits="userSpaceOnUse" x="0" y="2" width="19" height="14">
<path d="M18.4499 11.2973L2.73236 2.3637C1.80819 1.84134 0.991174 1.90162 0.495605 2.43067L13.9094 15.8445L18.4499 11.2973Z" fill="white"/>
</mask>
<g mask="url(#mask117_365_1542)">
<path d="M7.59423 1.84131L2.79927 6.62957L2.44434 6.27464L6.87766 1.84131H7.59423Z" fill="#6FB55D"/>
</g>
<mask id="mask118_365_1542" style="mask-type:luminance" maskUnits="userSpaceOnUse" x="0" y="2" width="19" height="14">
<path d="M18.4499 11.2973L2.73236 2.3637C1.80819 1.84134 0.991174 1.90162 0.495605 2.43067L13.9094 15.8445L18.4499 11.2973Z" fill="white"/>
</mask>
<g mask="url(#mask118_365_1542)">
<path d="M8.31047 1.84131L3.16058 6.9912L2.79895 6.62957L7.59391 1.84131H8.31047Z" fill="#70B65D"/>
</g>
<mask id="mask119_365_1542" style="mask-type:luminance" maskUnits="userSpaceOnUse" x="0" y="2" width="19" height="14">
<path d="M18.4499 11.2973L2.73236 2.3637C1.80819 1.84134 0.991174 1.90162 0.495605 2.43067L13.9094 15.8445L18.4499 11.2973Z" fill="white"/>
</mask>
<g mask="url(#mask119_365_1542)">
<path d="M9.02077 1.84131L3.51594 7.34613L3.16101 6.9912L8.3109 1.84131H9.02077Z" fill="#71B75D"/>
</g>
<mask id="mask120_365_1542" style="mask-type:luminance" maskUnits="userSpaceOnUse" x="0" y="2" width="19" height="14">
<path d="M18.4499 11.2973L2.73236 2.3637C1.80819 1.84134 0.991174 1.90162 0.495605 2.43067L13.9094 15.8445L18.4499 11.2973Z" fill="white"/>
</mask>
<g mask="url(#mask120_365_1542)">
<path d="M9.73702 1.84131L3.87056 7.70107L3.51562 7.34613L9.02045 1.84131H9.73702Z" fill="#73B75D"/>
</g>
<mask id="mask121_365_1542" style="mask-type:luminance" maskUnits="userSpaceOnUse" x="0" y="2" width="19" height="14">
<path d="M18.4499 11.2973L2.73236 2.3637C1.80819 1.84134 0.991174 1.90162 0.495605 2.43067L13.9094 15.8445L18.4499 11.2973Z" fill="white"/>
</mask>
<g mask="url(#mask121_365_1542)">
<path d="M10.4536 1.84131L4.23224 8.056L3.87061 7.70107L9.73706 1.84131H10.4536Z" fill="#74B85C"/>
</g>
<mask id="mask122_365_1542" style="mask-type:luminance" maskUnits="userSpaceOnUse" x="0" y="2" width="19" height="14">
<path d="M18.4499 11.2973L2.73236 2.3637C1.80819 1.84134 0.991174 1.90162 0.495605 2.43067L13.9094 15.8445L18.4499 11.2973Z" fill="white"/>
</mask>
<g mask="url(#mask122_365_1542)">
<path d="M10.8892 1.84131L11.0299 1.97525L4.58748 8.41763L4.23254 8.056L10.4539 1.84131H10.8892Z" fill="#75B85C"/>
</g>
<mask id="mask123_365_1542" style="mask-type:luminance" maskUnits="userSpaceOnUse" x="0" y="2" width="19" height="14">
<path d="M18.4499 11.2973L2.73236 2.3637C1.80819 1.84134 0.991174 1.90162 0.495605 2.43067L13.9094 15.8445L18.4499 11.2973Z" fill="white"/>
</mask>
<g mask="url(#mask123_365_1542)">
<path d="M11.0302 1.97593L4.59009 8.41602L4.94524 8.77117L11.3853 2.33108L11.0302 1.97593Z" fill="#75B95C"/>
</g>
<mask id="mask124_365_1542" style="mask-type:luminance" maskUnits="userSpaceOnUse" x="0" y="2" width="19" height="14">
<path d="M18.4499 11.2973L2.73236 2.3637C1.80819 1.84134 0.991174 1.90162 0.495605 2.43067L13.9094 15.8445L18.4499 11.2973Z" fill="white"/>
</mask>
<g mask="url(#mask124_365_1542)">
<path d="M11.3878 2.33531L4.94775 8.77539L5.30291 9.13054L11.743 2.69046L11.3878 2.33531Z" fill="#76B95C"/>
</g>
<mask id="mask125_365_1542" style="mask-type:luminance" maskUnits="userSpaceOnUse" x="0" y="2" width="19" height="14">
<path d="M18.4499 11.2973L2.73236 2.3637C1.80819 1.84134 0.991174 1.90162 0.495605 2.43067L13.9094 15.8445L18.4499 11.2973Z" fill="white"/>
</mask>
<g mask="url(#mask125_365_1542)">
<path d="M11.7442 2.70005L5.30408 9.14014L5.65923 9.49529L12.0993 3.05521L11.7442 2.70005Z" fill="#77BA5C"/>
</g>
<mask id="mask126_365_1542" style="mask-type:luminance" maskUnits="userSpaceOnUse" x="0" y="2" width="19" height="14">
<path d="M18.4499 11.2973L2.73236 2.3637C1.80819 1.84134 0.991174 1.90162 0.495605 2.43067L13.9094 15.8445L18.4499 11.2973Z" fill="white"/>
</mask>
<g mask="url(#mask126_365_1542)">
<path d="M12.0973 3.05455L5.65723 9.49463L6.01238 9.84978L12.4525 3.4097L12.0973 3.05455Z" fill="#78BA5B"/>
</g>
<mask id="mask127_365_1542" style="mask-type:luminance" maskUnits="userSpaceOnUse" x="0" y="2" width="19" height="14">
<path d="M18.4499 11.2973L2.73236 2.3637C1.80819 1.84134 0.991174 1.90162 0.495605 2.43067L13.9094 15.8445L18.4499 11.2973Z" fill="white"/>
</mask>
<g mask="url(#mask127_365_1542)">
<path d="M12.4547 3.40171L6.01465 9.8418L6.3698 10.1969L12.8099 3.75686L12.4547 3.40171Z" fill="#79BA5B"/>
</g>
<mask id="mask128_365_1542" style="mask-type:luminance" maskUnits="userSpaceOnUse" x="0" y="2" width="19" height="14">
<path d="M18.4499 11.2973L2.73236 2.3637C1.80819 1.84134 0.991174 1.90162 0.495605 2.43067L13.9094 15.8445L18.4499 11.2973Z" fill="white"/>
</mask>
<g mask="url(#mask128_365_1542)">
<path d="M12.8158 3.77134L6.37573 10.2114L6.73088 10.5666L13.171 4.12649L12.8158 3.77134Z" fill="#7ABB5B"/>
</g>
<mask id="mask129_365_1542" style="mask-type:luminance" maskUnits="userSpaceOnUse" x="0" y="2" width="19" height="14">
<path d="M18.4499 11.2973L2.73236 2.3637C1.80819 1.84134 0.991174 1.90162 0.495605 2.43067L13.9094 15.8445L18.4499 11.2973Z" fill="white"/>
</mask>
<g mask="url(#mask129_365_1542)">
<path d="M13.1686 4.12583L6.72852 10.5659L7.08367 10.9211L13.5238 4.48099L13.1686 4.12583Z" fill="#7ABB5B"/>
</g>
<mask id="mask130_365_1542" style="mask-type:luminance" maskUnits="userSpaceOnUse" x="0" y="2" width="19" height="14">
<path d="M18.4499 11.2973L2.73236 2.3637C1.80819 1.84134 0.991174 1.90162 0.495605 2.43067L13.9094 15.8445L18.4499 11.2973Z" fill="white"/>
</mask>
<g mask="url(#mask130_365_1542)">
<path d="M13.5266 4.47398L7.08655 10.9141L7.4417 11.2692L13.8818 4.82913L13.5266 4.47398Z" fill="#7BBB5B"/>
</g>
<mask id="mask131_365_1542" style="mask-type:luminance" maskUnits="userSpaceOnUse" x="0" y="2" width="19" height="14">
<path d="M18.4499 11.2973L2.73236 2.3637C1.80819 1.84134 0.991174 1.90162 0.495605 2.43067L13.9094 15.8445L18.4499 11.2973Z" fill="white"/>
</mask>
<g mask="url(#mask131_365_1542)">
<path d="M13.8867 4.84361L7.44666 11.2837L7.80181 11.6388L14.2419 5.19876L13.8867 4.84361Z" fill="#7BBC5B"/>
</g>
<mask id="mask132_365_1542" style="mask-type:luminance" maskUnits="userSpaceOnUse" x="0" y="2" width="19" height="14">
<path d="M18.4499 11.2973L2.73236 2.3637C1.80819 1.84134 0.991174 1.90162 0.495605 2.43067L13.9094 15.8445L18.4499 11.2973Z" fill="white"/>
</mask>
<g mask="url(#mask132_365_1542)">
<path d="M14.2409 5.19761L7.80078 11.6377L8.15593 11.9928L14.596 5.55276L14.2409 5.19761Z" fill="#7CBC5B"/>
</g>
<mask id="mask133_365_1542" style="mask-type:luminance" maskUnits="userSpaceOnUse" x="0" y="2" width="19" height="14">
<path d="M18.4499 11.2973L2.73236 2.3637C1.80819 1.84134 0.991174 1.90162 0.495605 2.43067L13.9094 15.8445L18.4499 11.2973Z" fill="white"/>
</mask>
<g mask="url(#mask133_365_1542)">
<path d="M14.5992 5.54492L18.4499 9.40232V15.8447H12.0143L8.15686 11.9873L14.5992 5.54492Z" fill="#7CBC5B"/>
</g>
<path d="M34.7634 1.84814H36.2367V4.41974H38.949V1.84814H40.4223V8.54501H38.949V5.65866H36.2367V8.54501H34.7634V1.84814Z" fill="#4A4A4A"/>
<path d="M42.8534 6.44278C42.8735 6.86468 42.9807 7.17944 43.1816 7.37365C43.3825 7.56785 43.6705 7.66831 44.0455 7.66831C44.3134 7.66831 44.5478 7.60134 44.742 7.4674C44.9362 7.33346 45.0567 7.19283 45.0969 7.0388H46.2689C46.0813 7.61473 45.7934 8.02994 45.405 8.28442C45.0165 8.5389 44.5478 8.66614 43.9986 8.66614C43.6169 8.66614 43.2753 8.60587 42.9673 8.47863C42.6592 8.35139 42.4048 8.17727 42.1905 7.95627C41.9762 7.73528 41.8154 7.46071 41.7016 7.15265C41.5877 6.8379 41.5275 6.49636 41.5275 6.12133C41.5275 5.7597 41.5877 5.42486 41.7083 5.1101C41.8288 4.79535 41.9962 4.52748 42.2172 4.29978C42.4382 4.07209 42.6994 3.89127 43.0008 3.76403C43.3021 3.6301 43.637 3.56982 44.0053 3.56982C44.4205 3.56982 44.7755 3.65019 45.0835 3.81091C45.3916 3.97164 45.6393 4.18594 45.8403 4.45381C46.0412 4.72169 46.1818 5.02974 46.2689 5.37128C46.3559 5.71282 46.3894 6.07445 46.3626 6.44948L42.8534 6.44278ZM45.0165 5.59898C44.9563 5.26413 44.8424 5.00295 44.6817 4.82884C44.521 4.65472 44.2799 4.56766 43.9584 4.56766C43.7441 4.56766 43.57 4.60114 43.4294 4.67481C43.2887 4.74847 43.1749 4.83553 43.0945 4.94268C43.0075 5.04983 42.9539 5.16368 42.9137 5.27753C42.8802 5.39807 42.8601 5.50522 42.8534 5.59898H45.0165Z" fill="#4A4A4A"/>
<path d="M47.3601 3.69693H48.6191V4.35322H48.6392C48.8133 4.10543 49.0276 3.91123 49.2754 3.77059C49.5232 3.62996 49.8045 3.56299 50.1259 3.56299C50.434 3.56299 50.7152 3.62326 50.963 3.7438C51.2175 3.86435 51.4117 4.07195 51.539 4.36661C51.6796 4.15231 51.8805 3.9648 52.1283 3.80408C52.3761 3.64335 52.6707 3.56299 53.0056 3.56299C53.26 3.56299 53.5011 3.59647 53.7154 3.65674C53.9364 3.71702 54.1239 3.81747 54.278 3.9581C54.432 4.09874 54.5592 4.27286 54.6463 4.49385C54.7334 4.71485 54.7802 4.98272 54.7802 5.29748V8.53876H53.4476V5.79305C53.4476 5.63232 53.4409 5.47829 53.4275 5.33096C53.4141 5.18363 53.3806 5.06309 53.327 4.95594C53.2734 4.84879 53.1864 4.76173 53.0792 4.70146C52.9721 4.64118 52.8248 4.6077 52.6305 4.6077C52.443 4.6077 52.289 4.64118 52.1752 4.71485C52.0613 4.78852 51.9676 4.88227 51.9006 4.99612C51.8336 5.10997 51.7934 5.2439 51.7666 5.39123C51.7466 5.53856 51.7332 5.6859 51.7332 5.83992V8.53876H50.4005V5.81983C50.4005 5.6792 50.4005 5.53856 50.3938 5.39793C50.3871 5.2573 50.3603 5.12336 50.3134 5.00281C50.2666 4.88227 50.1862 4.78852 50.079 4.71485C49.9719 4.64118 49.8112 4.6077 49.5969 4.6077C49.5299 4.6077 49.4428 4.62109 49.3424 4.64788C49.2419 4.67467 49.1415 4.72824 49.0477 4.80861C48.954 4.88897 48.8669 5.00281 48.7999 5.14345C48.733 5.29078 48.6995 5.48499 48.6995 5.71938V8.53206H47.3668L47.3601 3.69693Z" fill="#4A4A4A"/>
<path d="M57.1043 6.44278C57.1244 6.86468 57.2315 7.17944 57.4324 7.37365C57.6333 7.56785 57.9213 7.66831 58.2963 7.66831C58.5642 7.66831 58.7986 7.60134 58.9928 7.4674C59.187 7.33346 59.3076 7.19283 59.3477 7.0388H60.5197C60.3322 7.61473 60.0442 8.02994 59.6558 8.28442C59.2674 8.5389 58.7986 8.66614 58.2494 8.66614C57.8677 8.66614 57.5262 8.60587 57.2181 8.47863C56.9101 8.35139 56.6556 8.17727 56.4413 7.95627C56.227 7.73528 56.0663 7.46071 55.9457 7.15265C55.8252 6.84459 55.7716 6.49636 55.7716 6.12133C55.7716 5.7597 55.8319 5.42486 55.9524 5.1101C56.073 4.79535 56.2404 4.52748 56.4614 4.29978C56.6824 4.07209 56.9436 3.89127 57.2449 3.76403C57.5463 3.6301 57.8811 3.56982 58.2494 3.56982C58.6647 3.56982 59.0196 3.65019 59.3276 3.81091C59.6357 3.97164 59.8835 4.18594 60.0844 4.45381C60.2853 4.72169 60.4259 5.02974 60.513 5.37128C60.6 5.71282 60.6335 6.07445 60.6067 6.44948L57.1043 6.44278ZM59.2674 5.59898C59.2071 5.26413 59.0932 5.00295 58.9325 4.82884C58.7718 4.65472 58.5307 4.56766 58.2093 4.56766C57.995 4.56766 57.8208 4.60114 57.6802 4.67481C57.5396 4.74847 57.4257 4.83553 57.3454 4.94268C57.2583 5.04983 57.2047 5.16368 57.1646 5.27753C57.1311 5.39807 57.111 5.50522 57.1043 5.59898H59.2674Z" fill="#4A4A4A"/>
<path d="M61.578 3.69706H62.8437V4.37345H62.8705C63.0379 4.09888 63.2589 3.89797 63.5268 3.76403C63.7946 3.6301 64.0692 3.56982 64.3505 3.56982C64.7054 3.56982 65.0001 3.6167 65.2278 3.71716C65.4555 3.81761 65.6363 3.94485 65.7635 4.11897C65.8908 4.29309 65.9845 4.50069 66.0381 4.74847C66.0917 4.99626 66.1184 5.27083 66.1184 5.56549V8.5456H64.7858V5.80658C64.7858 5.40477 64.7188 5.1101 64.5916 4.9092C64.4643 4.70829 64.2433 4.61454 63.9286 4.61454C63.5669 4.61454 63.3058 4.72169 63.1383 4.93599C62.9776 5.15029 62.8973 5.50522 62.8973 6.00079V8.5389H61.5646V3.69706H61.578Z" fill="#4A4A4A"/>
<path d="M70.2572 1.84834H71.7305V8.5452H70.2572V1.84834ZM70.3644 0H71.6301V1.09829H70.3644V0Z" fill="#4A4A4A"/>
<path d="M73.0695 3.69706H74.3353V4.37345H74.362C74.5295 4.09888 74.7505 3.89797 75.0183 3.76403C75.2862 3.6301 75.5608 3.56982 75.842 3.56982C76.197 3.56982 76.4916 3.6167 76.7193 3.71716C76.947 3.81761 77.1278 3.94485 77.2551 4.11897C77.389 4.29309 77.4761 4.50069 77.5297 4.74847C77.5832 4.99626 77.61 5.27083 77.61 5.56549V8.5456H76.2773V5.80658C76.2773 5.40477 76.2104 5.1101 76.0831 4.9092C75.9559 4.71499 75.7349 4.61454 75.4201 4.61454C75.0585 4.61454 74.7973 4.72169 74.6299 4.93599C74.4692 5.15029 74.3888 5.50522 74.3888 6.00079V8.5389H73.0562V3.69706H73.0695Z" fill="#4A4A4A"/>
<path d="M82.2777 7.92207H82.2576C82.1036 8.18324 81.896 8.37745 81.6415 8.4913C81.387 8.61184 81.099 8.67212 80.791 8.67212C80.4227 8.67212 80.1012 8.59845 79.8266 8.45781C79.5521 8.31718 79.3311 8.12297 79.1502 7.88189C78.9694 7.6408 78.8355 7.36623 78.7484 7.05147C78.6547 6.73672 78.6145 6.41527 78.6145 6.07373C78.6145 5.74558 78.6614 5.43753 78.7484 5.12947C78.8355 4.82811 78.9761 4.56024 79.1502 4.32585C79.3311 4.09815 79.5521 3.91064 79.8199 3.77001C80.0878 3.62937 80.4026 3.5624 80.7575 3.5624C81.0455 3.5624 81.32 3.62268 81.5745 3.74322C81.8357 3.86376 82.0366 4.04458 82.1906 4.27897H82.2107V1.84131H83.5434V8.53818H82.2777V7.92207ZM82.204 5.53128C82.1638 5.34377 82.1036 5.18305 82.0098 5.04241C81.9161 4.90178 81.8022 4.78793 81.6549 4.70087C81.5075 4.61381 81.3267 4.56693 81.1124 4.56693C80.8914 4.56693 80.7106 4.61381 80.5566 4.70087C80.4093 4.78793 80.2887 4.90178 80.195 5.04911C80.1012 5.18974 80.0409 5.35716 80.0008 5.53798C79.9606 5.72549 79.9405 5.913 79.9405 6.11391C79.9405 6.30142 79.9606 6.48894 80.0074 6.67645C80.0543 6.86396 80.1213 7.03138 80.2151 7.17871C80.3088 7.32604 80.436 7.44659 80.5834 7.53365C80.7307 7.6274 80.9048 7.66759 81.1124 7.66759C81.3334 7.66759 81.5142 7.62071 81.6616 7.53365C81.8089 7.44659 81.9228 7.32604 82.0165 7.17871C82.1036 7.03138 82.1638 6.86396 82.204 6.67645C82.2442 6.48894 82.2576 6.29473 82.2576 6.09382C82.2576 5.913 82.2375 5.7188 82.204 5.53128Z" fill="#4A4A4A"/>
<path d="M86.1018 2.94643H84.7692V1.84814H86.1018V2.94643ZM84.7692 3.69648H86.1018V8.54501H84.7692V3.69648Z" fill="#4A4A4A"/>
<path d="M87.3408 3.69693H88.6065V4.59431H88.6266C88.6869 4.44697 88.774 4.30634 88.8811 4.1791C88.9883 4.05186 89.1088 3.93801 89.2494 3.85095C89.3901 3.7572 89.5374 3.69023 89.6981 3.63665C89.8588 3.58978 90.0196 3.56299 90.1803 3.56299C90.2807 3.56299 90.3745 3.57638 90.4683 3.60987V4.84879C90.408 4.83539 90.3276 4.822 90.2406 4.8153C90.1535 4.80861 90.0665 4.80191 89.9861 4.80191C89.745 4.80191 89.5374 4.84209 89.37 4.92245C89.2025 5.00281 89.0619 5.11666 88.9615 5.2573C88.861 5.39793 88.7874 5.56535 88.7405 5.75286C88.6936 5.94707 88.6735 6.14798 88.6735 6.35558V8.53876H87.3408V3.69693Z" fill="#4A4A4A"/>
<path d="M92.7317 2.94643H91.399V1.84814H92.7317V2.94643ZM91.399 3.69648H92.7317V8.54501H91.399V3.69648Z" fill="#4A4A4A"/>
<path d="M93.9705 3.69706H95.2363V4.37345H95.263C95.4305 4.09888 95.6515 3.89797 95.9193 3.76403C96.1872 3.6301 96.4618 3.56982 96.7431 3.56982C97.098 3.56982 97.3926 3.6167 97.6203 3.71716C97.848 3.81761 98.0289 3.94485 98.1561 4.11897C98.29 4.29309 98.3771 4.50069 98.4307 4.74847C98.4842 4.99626 98.511 5.27083 98.511 5.56549V8.5456H97.1783V5.80658C97.1783 5.40477 97.1114 5.1101 96.9841 4.9092C96.8569 4.71499 96.6359 4.61454 96.3211 4.61454C95.9595 4.61454 95.6983 4.72169 95.5309 4.93599C95.3702 5.15029 95.2898 5.50522 95.2898 6.00079V8.5389H93.9572V3.69706H93.9705Z" fill="#4A4A4A"/>
</svg>
