<svg width="26" height="35" viewBox="0 0 26 35" fill="none" xmlns="http://www.w3.org/2000/svg">
<path d="M22.1922 3.80663C19.9193 1.53428 16.8852 0.184406 13.6756 0.0175449C10.4659 -0.149316 7.3082 0.878662 4.81189 2.90308C2.31559 4.92749 0.657646 7.80483 0.158057 10.9798C-0.341531 14.1547 0.352646 17.4021 2.10661 20.0954L11.1443 33.9698C11.3455 34.2786 11.6205 34.5322 11.9444 34.7078C12.2683 34.8834 12.631 34.9754 12.9994 34.9754C13.3679 34.9754 13.7305 34.8834 14.0545 34.7078C14.3784 34.5322 14.6534 34.2786 14.8545 33.9698L23.8926 20.0954C25.5201 17.597 26.2393 14.6152 25.9297 11.6496C25.6202 8.68403 24.3006 5.915 22.1922 3.80663ZM21.8884 18.7897L12.9995 32.4352L4.1105 18.7897C1.38962 14.6128 1.97319 9.02302 5.49807 5.49798C6.48316 4.51287 7.65264 3.73143 8.93974 3.19829C10.2268 2.66514 11.6063 2.39074 12.9995 2.39074C14.3926 2.39074 15.7721 2.66514 17.0592 3.19829C18.3463 3.73143 19.5158 4.51287 20.5009 5.49798C24.0258 9.02302 24.6093 14.6128 21.8884 18.7897Z" fill="#FEC00F"/>
</svg>
