<svg viewBox="0 0 218 149" fill="none" xmlns="http://www.w3.org/2000/svg">
<path d="M20.079 47.3193H26.4327V56.6455C27.944 56.3013 29.7638 56.0822 31.3059 56.0822C39.1401 56.0822 42.6254 59.337 42.6254 69.3517C42.6254 79.5229 39.0476 82.6525 30.5657 82.6525C27.1112 82.6525 23.1633 81.9639 20.2949 80.2427C20.1407 78.584 20.079 77.0818 20.079 75.3292V47.3193ZM26.4327 73.4515C26.4327 74.6094 26.4635 75.8925 26.5869 76.9253C27.543 77.3634 29.1469 77.6138 30.5657 77.6138C35.9941 77.6138 36.2408 73.6079 36.2408 69.383C36.2408 64.6886 36.0866 61.1834 30.0105 61.1834C28.9001 61.1834 27.4814 61.4025 26.4327 61.7468V73.4515Z" fill="#831779"/>
<path d="M44.8152 69.352C44.8152 59.9632 47.7144 56.0825 56.258 56.0825C65.5727 56.0825 67.485 61.0273 67.485 68.8513C67.485 69.5398 67.4541 70.2283 67.3924 70.9168C64.4932 71.4488 58.818 72.0122 55.3327 72.1999L51.138 72.419C51.354 76.4562 53.4821 77.4576 57.1525 77.4576C60.5761 77.4576 63.7221 77.1134 66.3438 76.7691L66.8681 81.6513C64.1847 82.0894 60.6686 82.6528 55.7029 82.6528C47.0667 82.6528 44.8152 77.0195 44.8152 69.352ZM55.3327 67.8185C56.9983 67.7246 59.5583 67.5055 61.0696 67.3178C61.1004 67.0361 61.1313 66.5667 61.1313 66.285C61.1313 62.8737 59.8975 61.0273 56.2889 61.0273C51.6007 61.0273 50.9838 64.0004 50.9838 68.0376L55.3327 67.8185Z" fill="#831779"/>
<path d="M77.0773 82.3085H70.7544V63.4058C70.7544 61.6532 70.8161 60.151 70.9703 58.4923C73.9621 56.8649 77.8792 56.0825 82.3823 56.0825C91.5736 56.0825 92.5606 60.2449 92.5606 65.8156V82.3085H86.2377V66.4102C86.2377 62.7799 85.59 61.2464 81.1794 61.2464C79.7915 61.2464 78.1876 61.4967 77.2315 61.9349C77.1081 62.9676 77.0773 64.2508 77.0773 65.4087V82.3085Z" fill="#831779"/>
<path d="M96.0458 50.4492C96.0458 47.7577 96.9402 46.8188 99.8087 46.8188C102.646 46.8188 103.572 47.789 103.572 50.4492C103.572 53.1406 102.677 54.1108 99.8087 54.1108C96.9402 54.1108 96.0458 53.1406 96.0458 50.4492ZM96.601 56.4267H103.016V82.3084H96.6318V56.4267H96.601Z" fill="#831779"/>
<path d="M113.626 82.3085H107.304V63.4058C107.304 61.6532 107.365 60.151 107.519 58.4923C110.357 56.9588 114.367 56.0825 118.315 56.0825C121.121 56.0825 123.095 56.6458 124.483 57.5534C126.766 56.6771 129.572 56.0825 132.287 56.0825C140.46 56.0825 141.663 60.5265 141.663 65.8156V82.3085H135.309V66.4102C135.309 63.0615 134.507 61.2464 130.93 61.2464C129.943 61.2464 128.462 61.4967 127.29 62.0913C127.537 63.2493 127.629 64.5011 127.629 65.8156V82.3085H121.276V66.4102C121.276 63.1241 120.504 61.2464 117.05 61.2464C115.971 61.2464 114.583 61.528 113.812 61.9349C113.688 62.9676 113.657 64.2508 113.657 65.4087V82.3085H113.626Z" fill="#831779"/>
<path d="M59.4658 109.911C59.1882 111.664 58.8797 113.166 58.4788 114.825C55.3019 116.577 51.4465 117.234 46.9434 117.234C40.9598 117.234 38.4307 115.138 38.4307 111.006C38.4307 110.381 38.4924 109.723 38.6157 108.972C39.3251 104.403 41.7 101.555 46.82 100.741C49.5034 100.303 52.1867 100.209 54.9626 100.084C55.0243 99.6773 55.0552 99.2705 55.0552 98.9262C55.0552 96.7668 53.8214 95.7653 51.0455 95.7653C48.0229 95.7653 44.6918 96.1096 42.1319 96.4226L42.3478 91.6343C45.062 91.1648 48.6398 90.6328 52.3101 90.6328C57.3376 90.6328 61.378 91.9472 61.378 97.0798C61.378 97.6744 61.3163 98.3003 61.2238 98.9575L59.4658 109.911ZM44.7535 108.878C44.6918 109.191 44.6918 109.473 44.6918 109.755C44.6918 111.758 46.0798 112.321 48.4547 112.321C49.8427 112.321 51.539 112.227 52.9887 111.632C53.2663 110.6 53.513 109.316 53.6981 108.159L54.2841 104.309C52.4027 104.403 50.2128 104.466 48.4239 104.904C46.1415 105.436 45.1853 106.156 44.7535 108.878Z" fill="#FEC00F"/>
<path d="M75.0725 84.7808L74.3014 89.7256C74.2089 90.3828 74.7024 90.9774 75.3501 90.9774H79.1129L78.3419 95.8596H73.3144L71.2171 109.254C71.1862 109.567 71.1554 109.849 71.1554 110.131C71.1554 111.633 71.9573 112.259 73.7462 112.259C74.4556 112.259 75.1342 112.227 75.8744 112.165L75.6277 116.765C74.2706 117.016 72.6359 117.203 71.2788 117.203C66.7757 117.203 64.74 115.451 64.74 111.883C64.74 111.288 64.8017 110.631 64.9251 109.911L66.9299 97.1427C67.0224 96.4855 66.5289 95.8909 65.8812 95.8909H63.0745L63.8455 91.0087H67.9169L68.9038 84.7495L75.0725 84.7808Z" fill="#FEC00F"/>
<path d="M81.7962 91.0088H87.9957L85.5282 106.907C85.4049 107.721 85.3432 108.409 85.3432 109.035C85.3432 111.163 86.3302 112.071 89.6304 112.071C90.9875 112.071 92.5605 111.821 93.5475 111.382C93.8251 110.35 94.0718 109.067 94.2569 107.909L96.8785 91.0088H103.078L100.117 109.912C99.8395 111.664 99.5311 113.166 99.1301 114.825C95.9532 116.452 92.0053 117.235 87.5947 117.235C80.5933 117.235 78.8661 114.669 78.8661 110.913C78.8661 109.88 79.0203 108.691 79.2054 107.502L81.7962 91.0088Z" fill="#FEC00F"/>
<path d="M102.615 116.859L105.576 97.9561C105.854 96.2035 106.162 94.7013 106.563 93.0426C109.648 91.3526 113.596 90.6328 116.988 90.6328C117.883 90.6328 118.716 90.6641 119.487 90.758L118.191 95.9218C117.667 95.8592 117.019 95.8279 116.402 95.8279C114.953 95.8279 113.195 96.1096 112.115 96.6416C111.838 97.6744 111.622 98.9575 111.437 100.115L108.815 116.859H102.615Z" fill="#FEC00F"/>
<path d="M138.455 109.911C138.178 111.664 137.869 113.166 137.468 114.825C134.291 116.577 130.436 117.234 125.933 117.234C119.949 117.234 117.42 115.138 117.42 111.006C117.42 110.381 117.482 109.723 117.605 108.972C118.315 104.403 120.69 101.555 125.81 100.741C128.493 100.303 131.176 100.209 133.952 100.084C134.014 99.6773 134.045 99.2705 134.045 98.9262C134.045 96.7668 132.811 95.7653 130.035 95.7653C127.012 95.7653 123.681 96.1096 121.121 96.4226L121.337 91.6343C124.051 91.1648 127.629 90.6328 131.3 90.6328C136.327 90.6328 140.368 91.9472 140.368 97.0798C140.368 97.6744 140.306 98.3003 140.213 98.9575L138.455 109.911ZM123.743 108.878C123.681 109.191 123.681 109.473 123.681 109.755C123.681 111.758 125.069 112.321 127.444 112.321C128.832 112.321 130.529 112.227 131.978 111.632C132.256 110.6 132.503 109.316 132.688 108.159L133.274 104.309C131.392 104.403 129.202 104.466 127.413 104.904C125.131 105.436 124.175 106.156 123.743 108.878Z" fill="#FEC00F"/>
<path d="M174.172 116.859H167.972L170.44 100.961C170.563 100.241 170.625 99.5835 170.625 99.0202C170.625 96.9234 169.73 95.7967 166.985 95.7967C165.998 95.7967 164.518 96.0471 163.284 96.6417C163.284 96.8608 163.284 97.0799 163.284 97.2989C163.284 98.2691 163.192 99.3019 163.006 100.335L160.446 116.796H154.247L156.714 100.898C156.838 100.178 156.9 99.5523 156.9 98.9576C156.9 96.8921 156.036 95.7341 153.383 95.7341C152.304 95.7341 150.916 96.0158 150.083 96.4227C149.806 97.4554 149.559 98.7386 149.374 99.8965L146.752 116.796H140.553L143.514 97.8936C143.791 96.141 144.1 94.6388 144.501 92.9801C147.523 91.4466 151.564 90.5703 155.45 90.5703C158.195 90.5703 160.046 91.1336 161.248 92.0412C163.654 91.1649 166.461 90.5703 169.113 90.5703C175.436 90.5703 177.071 93.3556 177.071 97.1112C177.071 98.1126 176.948 99.1767 176.793 100.303L174.172 116.859Z" fill="#FEC00F"/>
<path d="M137.222 17.7448C141.632 16.8372 146.043 15.9609 150.484 15.0846C156.468 13.8641 162.482 12.6748 168.466 11.4543C171.673 10.7971 174.85 10.2024 178.058 9.54522C179.23 9.29486 180.711 9.92077 181.173 11.1413C181.759 12.6748 182.314 14.177 182.87 15.7105C184.319 19.7164 185.769 23.7849 187.218 27.8221C188.514 31.3898 189.778 34.9575 191.074 38.5566C192.246 41.8739 193.449 45.16 194.621 48.4774C195.269 50.2612 194.528 51.826 192.801 52.3894C191.351 52.8588 189.933 52.0138 189.316 50.2925C188.051 46.7874 186.787 43.2823 185.522 39.7458C182.684 31.8279 179.847 23.9414 177.009 16.0235C176.886 15.6479 176.732 15.5227 176.362 15.6166C175.776 15.7418 175.19 15.8357 174.604 15.9609C169.885 16.9311 165.135 17.9012 160.416 18.8401C154.216 20.092 148.017 21.3438 141.817 22.5956C140.954 22.7834 140.984 22.7834 141.231 23.5971C142.773 28.3541 144.315 33.1111 145.888 37.8368C147.647 43.0945 149.435 48.3209 151.286 53.5473C152.612 57.3028 153.969 61.0271 155.481 64.6887C156.56 67.3801 157.763 70.0403 159.398 72.4501C160.971 74.766 162.945 76.3934 165.813 76.8315C169.175 77.3635 172.198 75.6423 173.37 72.3875C174.11 70.3532 174.388 68.2564 174.295 66.097C174.264 65.4711 174.48 65.2207 175.005 65.0016C181.728 62.2789 188.452 59.4936 195.145 56.7395C198.507 55.3625 201.869 53.9855 205.231 52.6084C206.064 52.2642 206.033 52.2642 206.218 53.1405C206.526 54.4549 206.619 55.8006 206.65 57.3967C206.619 58.1165 206.65 59.118 206.465 60.0882C205.755 64.3131 203.627 67.5366 199.895 69.5396C197.798 70.6662 195.577 71.5738 193.418 72.544C189.377 74.4217 185.337 76.2995 181.297 78.1146C178.582 79.3352 175.961 80.6809 173.185 81.745C169.977 82.9342 166.739 82.809 163.5 82.0579C159.953 81.2442 157.27 79.0535 155.172 76.0804C153.167 73.2951 151.749 70.1968 150.484 67.0359C147.832 60.4637 145.488 53.7977 143.205 47.1004C140.337 38.6817 137.53 30.2631 134.877 21.7819C134.23 19.779 135.124 18.1516 137.222 17.7448Z" fill="#831779"/>
<path d="M166.091 28.4795C166.091 25.9132 168.157 23.8164 170.686 23.8164C173.216 23.8164 175.282 25.9132 175.282 28.4795C175.282 31.0458 173.216 33.1426 170.686 33.1426C168.126 33.1426 166.091 31.0458 166.091 28.4795Z" fill="#831779"/>
<path d="M150.33 32.2974C150.33 29.7311 152.396 27.6343 154.926 27.6343C157.455 27.6343 159.521 29.7311 159.521 32.2974C159.521 34.8636 157.455 36.9605 154.926 36.9605C152.396 36.9292 150.33 34.8636 150.33 32.2974Z" fill="#831779"/>
<path d="M179.323 39.8086C180.71 40.3094 181.327 41.9368 180.649 43.2512C178.459 47.4761 174.665 50.7309 170.1 52.2018C168.342 52.7652 166.523 53.0468 164.703 53.0468C161.248 53.0468 157.825 52.0453 154.895 50.1363C153.661 49.3226 153.414 47.6013 154.37 46.4747L154.463 46.3808C155.234 45.4732 156.56 45.3167 157.547 45.9739C160.817 48.1021 164.826 48.6967 168.62 47.4761C171.982 46.4121 174.665 44.0962 176.269 40.9979C176.824 39.9338 178.058 39.4018 179.168 39.7773L179.323 39.8086Z" fill="#831779"/>
<path d="M22.1454 125.058H17.5189L19.9247 111.851C20.0172 111.351 19.6163 110.85 19.1228 110.85H14.0953L14.8664 105.968C14.9589 105.405 15.4216 105.029 15.9768 105.029H21.0351L21.5902 101.493C22.7006 94.357 26.9878 90.2886 34.4519 90.2886C35.7781 90.2886 37.6596 90.4138 39.0784 90.6328L38.0297 94.7639C37.8138 95.5463 37.1352 96.1096 36.3333 96.1096H35.0687C31.9844 96.1096 29.8254 97.7683 29.2702 101.273L28.8692 103.84C28.7767 104.466 29.2394 105.029 29.8562 105.029H36.2099L35.4389 109.942C35.3463 110.474 34.9145 110.881 34.3593 110.881H27.6972L25.7232 122.148C25.384 123.838 23.9035 125.058 22.1454 125.058Z" fill="#FEC00F"/>
</svg>
