<svg width="20" height="20" viewBox="0 0 20 20" fill="none" xmlns="http://www.w3.org/2000/svg">
<path d="M15.6549 4.96974V0.954802C15.6546 0.731177 15.5686 0.516786 15.4158 0.358659C15.2629 0.200533 15.0557 0.111585 14.8395 0.111328H4.72907C4.5129 0.111585 4.30566 0.200533 4.1528 0.358659C3.99995 0.516786 3.91397 0.731177 3.91372 0.954802V4.96974L0 7.86142V19.0051H19.5686V7.86142L15.6549 4.96974ZM17.8432 8.24524L15.6549 9.72524V6.628L17.8432 8.24524ZM5.21829 1.46089H14.3503V10.6076L12.0198 12.184L10.1209 11.1654L8.05133 12.199L5.21829 10.4196V1.46089ZM10.1 12.6744L18.264 17.0536V17.6556H1.30457V17.067L10.1 12.6744ZM1.30457 9.54031L6.65104 12.8984L1.30457 15.5684V9.54031ZM13.3493 12.8973L18.264 9.57286V15.5334L13.3493 12.8973ZM3.91372 6.628V9.6004L1.7394 8.23461L3.91372 6.628Z" fill="#FEC00F"/>
</svg>
