<svg width="19" height="20" viewBox="0 0 19 20" fill="none" xmlns="http://www.w3.org/2000/svg">
<path d="M18.3536 2.88519L18.3224 2.86569L14.3768 0.921875L10.1183 6.59994L12.0775 9.21245C12.0189 10.1977 11.6011 11.1272 10.9032 11.8251C10.2053 12.523 9.27572 12.9408 8.29048 12.9995L5.67802 11.0402L0 15.2987L1.92764 19.2112L1.94386 19.2443L1.9634 19.2754C2.06627 19.4412 2.20985 19.5778 2.38047 19.6724C2.55109 19.767 2.74308 19.8163 2.93816 19.8157H3.95624C5.91787 19.8157 7.8603 19.4293 9.67261 18.6786C11.4849 17.9279 13.1316 16.8276 14.5187 15.4405C15.9058 14.0535 17.0061 12.4068 17.7568 10.5944C18.5074 8.78213 18.8938 6.8397 18.8938 4.87807V3.85994C18.8944 3.66487 18.8451 3.47288 18.7505 3.30226C18.656 3.13164 18.5193 2.98806 18.3536 2.88519ZM17.4357 4.87807C17.4357 12.3107 11.3888 18.3576 3.95624 18.3576H3.13244L1.8427 15.7394L5.67829 12.8627L7.81374 14.4642H8.05674C9.5112 14.4626 10.9056 13.8841 11.9341 12.8556C12.9625 11.8272 13.541 10.4328 13.5427 8.97829V8.7353L11.9411 6.59989L14.8175 2.76453L17.4357 4.0545V4.87807Z" fill="#FEC00F"/>
</svg>
