<svg  viewBox="0 0 137 137" fill="none" xmlns="http://www.w3.org/2000/svg">
<path d="M120.175 136H16.8242C8.08594 136 1 128.914 1 120.175V16.8243C1 8.08599 8.08594 1 16.8242 1H120.175C128.914 1 136 8.08599 136 16.8243V120.175C136 128.914 128.914 136 120.175 136Z" stroke="#891F71" stroke-miterlimit="10"/>
<path fill-rule="evenodd" clip-rule="evenodd" d="M49.3709 102.045C49.0383 97.2763 46.3547 96.9214 44.5139 91.7095C42.6731 96.9214 39.9895 97.2763 39.6568 102.045C39.1578 109.363 49.881 109.363 49.3709 102.045Z" fill="url(#paint0_linear_399_73)" stroke="url(#paint1_linear_399_73)" stroke-width="0.25" stroke-miterlimit="10"/>
<path d="M43.7155 105.671C45.8557 105.671 47.5967 103.93 47.5967 101.79C47.5967 101.025 47.375 100.304 46.9868 99.6938C47.7853 100.404 48.2954 101.446 48.2954 102.599C48.2954 104.739 46.5544 106.48 44.4141 106.48C43.8375 106.48 43.2831 106.347 42.7841 106.126C42.1076 105.815 41.542 105.316 41.1428 104.695C41.6086 105.105 42.1631 105.405 42.7841 105.56C43.0835 105.627 43.3939 105.671 43.7155 105.671Z" fill="white" stroke="white" stroke-width="0.25" stroke-miterlimit="10"/>
<path d="M42.5511 97.431C42.6287 97.3201 42.7064 97.1982 42.784 97.0873C43.5048 96.0227 44.0814 95.058 44.3919 93.7051C44.6137 95.2908 43.7044 97.3091 42.9503 98.3847C42.9059 98.4513 42.8505 98.5289 42.784 98.6176C42.2406 99.3606 41.1095 100.968 41.0541 103.264C40.8434 100.248 41.2648 99.2718 42.5511 97.431Z" fill="white" stroke="white" stroke-width="0.25" stroke-miterlimit="10"/>
<path fill-rule="evenodd" clip-rule="evenodd" d="M37.6053 94.1377C37.1839 88.0497 33.7573 87.6061 31.4064 80.9526C29.0555 87.6061 25.6289 88.0497 25.2075 94.1377C24.5755 103.475 38.2485 103.475 37.6053 94.1377Z" fill="url(#paint2_linear_399_73)" stroke="url(#paint3_linear_399_73)" stroke-width="0.25" stroke-miterlimit="10"/>
<path d="M30.3864 98.7618C33.1144 98.7618 35.3322 96.544 35.3322 93.8161C35.3322 92.8291 35.0439 91.9198 34.556 91.1436C35.5762 92.0529 36.2304 93.3725 36.2304 94.8473C36.2304 97.5753 34.0126 99.7931 31.2847 99.7931C30.5417 99.7931 29.8431 99.6268 29.211 99.3384C28.3571 98.9392 27.6252 98.3072 27.1262 97.5198C27.7139 98.041 28.4237 98.4291 29.211 98.6177C29.588 98.7064 29.9761 98.7618 30.3864 98.7618Z" fill="white" stroke="white" stroke-width="0.25" stroke-miterlimit="10"/>
<path d="M28.9002 88.2384C29 88.0942 29.0998 87.95 29.1996 87.8059C30.12 86.453 30.8519 85.2221 31.2511 83.4922C31.5283 85.5215 30.3751 88.0831 29.4103 89.4692C29.3549 89.5469 29.2773 89.6467 29.1996 89.7576C28.5121 90.7112 27.0594 92.7517 26.9818 95.6903C26.7268 91.8313 27.259 90.6004 28.9002 88.2384Z" fill="white" stroke="white" stroke-width="0.25" stroke-miterlimit="10"/>
<path fill-rule="evenodd" clip-rule="evenodd" d="M24.3315 69.7417V73.9445C24.5977 75.9849 26.4385 76.24 26.4385 76.24H44.78C46.898 75.9738 47.0755 73.5675 47.0755 73.5675V69.7417H24.3315Z" fill="url(#paint4_linear_399_73)"/>
<path fill-rule="evenodd" clip-rule="evenodd" d="M86.1095 69.7414H24.4203C23.2892 69.5196 22.6128 67.2574 22.6128 67.2574V60.3821C24.7641 51.289 32.2604 50.8232 32.2604 50.8232H86.1095V69.7414Z" fill="url(#paint5_linear_399_73)"/>
<path fill-rule="evenodd" clip-rule="evenodd" d="M82.9936 108.532V50.8235L82.805 36.4963C83.171 33.5798 79.7445 32.482 79.7445 32.482H42.8618C37.6055 32.1271 37.3172 26.3718 37.3172 26.3718C36.9735 21.1156 42.6622 19.6851 42.6622 19.6851H104.762C114.542 20.6166 115.463 29.4325 115.463 29.4325V108.543H82.9936V108.532Z" fill="url(#paint6_linear_399_73)"/>
<path fill-rule="evenodd" clip-rule="evenodd" d="M82.5167 107.955C81.4632 107.955 80.4097 109.674 80.4097 109.674L77.9257 114.83C76.8612 116.926 79.0679 117.314 79.0679 117.314H118.434C120.397 117.403 119.776 114.642 119.776 114.642L116.915 109.297C116.394 108.376 115.773 108.343 115.773 108.343" fill="url(#paint7_linear_399_73)"/>
<path fill-rule="evenodd" clip-rule="evenodd" d="M108.787 53.8619V57.488C108.787 58.3308 108.099 59.0183 107.256 59.0183C106.414 59.0183 105.726 58.3308 105.726 57.488V53.8619C105.726 53.0191 106.414 52.3315 107.256 52.3315C108.11 52.3315 108.787 53.0191 108.787 53.8619Z" fill="white"/>
<path fill-rule="evenodd" clip-rule="evenodd" d="M108.787 63.6314V88.4712C108.787 89.3139 108.099 90.0015 107.256 90.0015C106.414 90.0015 105.726 89.3139 105.726 88.4712V63.6314C105.726 62.7886 106.414 62.1011 107.256 62.1011C108.11 62.1011 108.787 62.7886 108.787 63.6314Z" fill="white"/>
<path d="M82.7605 44.0591H115.984" stroke="white" stroke-width="2" stroke-miterlimit="10"/>
<defs>
<linearGradient id="paint0_linear_399_73" x1="49.3912" y1="99.6227" x2="39.6435" y2="99.6227" gradientUnits="userSpaceOnUse">
<stop offset="5.32779e-09" stop-color="#891F71"/>
<stop offset="0.3439" stop-color="#A03782"/>
<stop offset="0.7635" stop-color="#B95498"/>
<stop offset="1" stop-color="#C260A1"/>
</linearGradient>
<linearGradient id="paint1_linear_399_73" x1="49.5298" y1="99.4837" x2="39.5049" y2="99.4837" gradientUnits="userSpaceOnUse">
<stop offset="5.32779e-09" stop-color="#891F71"/>
<stop offset="0.3439" stop-color="#A03782"/>
<stop offset="0.7635" stop-color="#B95498"/>
<stop offset="1" stop-color="#C260A1"/>
</linearGradient>
<linearGradient id="paint2_linear_399_73" x1="37.6293" y1="91.0431" x2="25.1922" y2="91.0431" gradientUnits="userSpaceOnUse">
<stop offset="5.32779e-09" stop-color="#891F71"/>
<stop offset="0.3439" stop-color="#A03782"/>
<stop offset="0.7635" stop-color="#B95498"/>
<stop offset="1" stop-color="#C260A1"/>
</linearGradient>
<linearGradient id="paint3_linear_399_73" x1="37.7679" y1="90.9041" x2="25.0536" y2="90.9041" gradientUnits="userSpaceOnUse">
<stop offset="5.32779e-09" stop-color="#891F71"/>
<stop offset="0.3439" stop-color="#A03782"/>
<stop offset="0.7635" stop-color="#B95498"/>
<stop offset="1" stop-color="#C260A1"/>
</linearGradient>
<linearGradient id="paint4_linear_399_73" x1="47.0726" y1="72.9949" x2="24.334" y2="72.9949" gradientUnits="userSpaceOnUse">
<stop offset="5.32779e-09" stop-color="#891F71"/>
<stop offset="0.3439" stop-color="#A03782"/>
<stop offset="0.7635" stop-color="#B95498"/>
<stop offset="1" stop-color="#C260A1"/>
</linearGradient>
<linearGradient id="paint5_linear_399_73" x1="75.6564" y1="60.6043" x2="21.9779" y2="59.7708" gradientUnits="userSpaceOnUse">
<stop offset="0.2374" stop-color="#A03581"/>
<stop offset="1" stop-color="#C161A2"/>
</linearGradient>
<linearGradient id="paint6_linear_399_73" x1="115.48" y1="64.1097" x2="37.3131" y2="64.1097" gradientUnits="userSpaceOnUse">
<stop offset="5.32779e-09" stop-color="#891F71"/>
<stop offset="0.3439" stop-color="#A03782"/>
<stop offset="0.7635" stop-color="#B95498"/>
<stop offset="1" stop-color="#C260A1"/>
</linearGradient>
<linearGradient id="paint7_linear_399_73" x1="98.7581" y1="117.315" x2="98.7581" y2="107.951" gradientUnits="userSpaceOnUse">
<stop stop-color="#C260A1"/>
<stop offset="1" stop-color="#891F71"/>
</linearGradient>
</defs>
</svg>
