<svg viewBox="0 0 137 137" fill="none" xmlns="http://www.w3.org/2000/svg">
<path d="M120.175 136H16.8243C8.08599 136 1 128.914 1 120.175V16.8243C1 8.08599 8.08599 1 16.8243 1H120.175C128.914 1 136 8.08599 136 16.8243V120.175C136 128.914 128.914 136 120.175 136Z" stroke="#891F71" stroke-miterlimit="10"/>
<path d="M55.0818 79.9884C55.0818 82.8826 57.4327 85.2335 60.327 85.2335C63.2212 85.2335 65.5722 82.8826 65.5722 79.9884C65.5722 77.0941 63.2212 74.7432 60.327 74.7432C57.4327 74.7432 55.0818 77.0941 55.0818 79.9884ZM64.0418 79.9884C64.0418 82.0399 62.3785 83.7032 60.327 83.7032C58.2755 83.7032 56.6121 82.0399 56.6121 79.9884C56.6121 77.9369 58.2755 76.2735 60.327 76.2735C62.3785 76.2735 64.0418 77.9369 64.0418 79.9884Z" fill="url(#paint0_linear_399_46)"/>
<path d="M60.327 43.0391C51.9546 43.0391 44.1146 46.3325 38.2484 52.3207C37.8159 52.7532 37.583 53.3298 37.5941 53.9508C37.6052 54.5607 37.8492 55.1374 38.2817 55.5588C38.7141 55.9802 39.2797 56.213 39.8785 56.213C39.8896 56.213 39.8896 56.213 39.9007 56.213C40.5106 56.2019 41.0872 55.958 41.5086 55.5255C46.5098 50.4245 53.1855 47.6189 60.3159 47.6189C67.4462 47.6189 74.133 50.4245 79.1231 55.5255C79.5556 55.9691 80.1433 56.213 80.7643 56.213C81.3631 56.213 81.9398 55.9802 82.3612 55.5588C82.7936 55.1263 83.0376 54.5607 83.0487 53.9508C83.0598 53.3409 82.8269 52.7643 82.3944 52.3207C76.5393 46.3436 68.6993 43.0391 60.327 43.0391ZM81.3077 54.472C81.0194 54.7603 80.5093 54.7492 80.232 54.4609C74.9425 49.0605 67.8787 46.0886 60.327 46.0886C52.7752 46.0886 45.7114 49.0605 40.4219 54.4609C40.2777 54.6051 40.0892 54.6827 39.8896 54.6938C39.6789 54.6938 39.4904 54.6162 39.3462 54.472C39.2021 54.3279 39.1244 54.1393 39.1133 53.9397C39.1133 53.7401 39.191 53.5405 39.3351 53.3964C44.913 47.7076 52.3649 44.5694 60.327 44.5694C68.289 44.5694 75.7409 47.7076 81.3188 53.3964C81.4629 53.5405 81.5406 53.729 81.5406 53.9397C81.5295 54.1393 81.4519 54.3389 81.3077 54.472Z" fill="url(#paint1_linear_399_46)"/>
<path d="M74.9426 64.3747C75.5414 64.3747 76.1069 64.1418 76.5394 63.7315C77.4487 62.8554 77.4709 61.4028 76.5838 60.4934C72.2701 56.0578 66.5037 53.6182 60.327 53.6182C54.1504 53.6182 48.384 56.0578 44.0703 60.4934C43.1942 61.4028 43.2164 62.8554 44.1146 63.7315C45.024 64.6075 46.4766 64.5854 47.3527 63.6871C50.7903 60.1497 55.3923 58.198 60.327 58.198C65.2506 58.198 69.8637 60.1497 73.3014 63.6871C73.7339 64.1307 74.3105 64.3747 74.9426 64.3747ZM46.2549 62.6226C45.9665 62.922 45.4786 62.9331 45.1792 62.6337C44.8798 62.3454 44.8687 61.8574 45.1681 61.558C49.1824 57.4218 54.5717 55.1485 60.327 55.1485C66.0823 55.1485 71.4717 57.4218 75.4859 61.558C75.7743 61.8574 75.7743 62.3454 75.4748 62.6337C75.1865 62.922 74.6764 62.9109 74.3992 62.6226C70.6732 58.7857 65.672 56.6677 60.3381 56.6677C54.982 56.6677 49.9919 58.7857 46.2549 62.6226Z" fill="url(#paint2_linear_399_46)"/>
<path d="M69.5864 73.3793C70.1741 73.3793 70.7397 73.1576 71.1722 72.7473C71.6157 72.3259 71.8708 71.7603 71.8819 71.1393C71.893 70.5294 71.6712 69.9528 71.2498 69.5092C68.3666 66.493 64.4854 64.8296 60.3269 64.8296C56.1685 64.8296 52.2873 66.493 49.4041 69.5092C48.9827 69.9528 48.7609 70.5294 48.772 71.1393C48.7831 71.7492 49.0381 72.3259 49.4817 72.7473C49.9142 73.1576 50.4687 73.3793 51.0675 73.3793C51.0896 73.3793 51.1007 73.3793 51.1229 73.3793C51.7328 73.3683 52.3095 73.1132 52.7308 72.6697C54.738 70.5627 57.4438 69.4094 60.338 69.4094C63.2434 69.4094 65.9381 70.5627 67.9452 72.6697C68.3666 73.1243 68.9654 73.3793 69.5864 73.3793ZM51.6108 71.6162C51.4667 71.7603 51.2782 71.8491 51.0786 71.8491C50.879 71.8491 50.6793 71.7825 50.5352 71.6384C50.391 71.4942 50.3023 71.3057 50.3023 71.1061C50.3023 70.9065 50.3688 70.7069 50.513 70.5627C53.0968 67.857 56.5899 66.3599 60.3269 66.3599C64.064 66.3599 67.5571 67.857 70.1409 70.5627C70.285 70.7069 70.3516 70.9065 70.3516 71.1061C70.3516 71.3057 70.2628 71.4942 70.1187 71.6384C69.8193 71.9156 69.3203 71.9045 69.043 71.6162C66.7476 69.2098 63.6537 67.8902 60.3269 67.8902C57.0002 67.8902 53.9063 69.2209 51.6108 71.6162Z" fill="url(#paint3_linear_399_46)"/>
<path d="M51.367 20.2949H24.7529C19.2194 20.2949 14.7394 24.775 14.7394 30.3085V62.1788V97.0432C14.7394 102.577 19.2194 107.057 24.7529 107.057H41.8524L35.2322 113.677C34.5336 114.365 34.5336 115.496 35.2322 116.194C35.9197 116.882 37.0508 116.882 37.7384 116.194L46.8647 107.057H90.1348L99.2612 116.194C99.9598 116.882 101.08 116.882 101.767 116.194C102.466 115.496 102.466 114.376 101.767 113.677L95.1471 107.057H112.247C117.78 107.057 122.26 102.577 122.26 97.0432V62.1788V30.3085C122.26 24.775 117.78 20.2949 112.247 20.2949H85.6325M109.552 38.9802C111.847 38.9802 113.71 40.8432 113.71 43.1387C113.71 45.4341 111.847 47.2971 109.552 47.2971C107.256 47.2971 105.393 45.4341 105.393 43.1387C105.393 40.8321 107.256 38.9802 109.552 38.9802ZM95.6239 87.5619C95.6239 91.5429 92.7296 94.7588 89.1589 94.7588H61.0811H32.6484C29.0777 94.7588 26.1834 91.5319 26.1834 87.5619V39.5568C26.1834 35.5758 29.0777 32.36 32.6484 32.36H61.0922H89.17C92.7407 32.36 95.635 35.5869 95.635 39.5568V87.5619H95.6239Z" fill="url(#paint4_linear_399_46)"/>
<path d="M109.552 38.9805C107.256 38.9805 105.393 40.8435 105.393 43.1389C105.393 45.4344 107.256 47.2974 109.552 47.2974C111.847 47.2974 113.71 45.4344 113.71 43.1389C113.71 40.8324 111.847 38.9805 109.552 38.9805Z" fill="white"/>
<path d="M101.967 79.689C101.168 79.689 100.536 80.3321 100.536 81.1195C100.536 81.9068 101.18 82.55 101.967 82.55H117.192C117.991 82.55 118.623 81.9068 118.623 81.1195C118.623 80.3321 117.98 79.689 117.192 79.689H101.967Z" fill="white"/>
<path d="M101.967 85.9541C101.168 85.9541 100.536 86.5972 100.536 87.3846C100.536 88.183 101.18 88.8262 101.967 88.8262H117.192C117.991 88.8262 118.623 88.183 118.623 87.3846C118.623 86.5972 117.98 85.9541 117.192 85.9541H101.967Z" fill="white"/>
<defs>
<linearGradient id="paint0_linear_399_46" x1="55.0788" y1="79.9905" x2="65.5692" y2="79.9905" gradientUnits="userSpaceOnUse">
<stop offset="5.32779e-09" stop-color="#891F71"/>
<stop offset="0.3439" stop-color="#A03782"/>
<stop offset="0.7635" stop-color="#B95498"/>
<stop offset="1" stop-color="#C260A1"/>
</linearGradient>
<linearGradient id="paint1_linear_399_46" x1="37.5879" y1="49.6328" x2="83.06" y2="49.6328" gradientUnits="userSpaceOnUse">
<stop offset="5.32779e-09" stop-color="#891F71"/>
<stop offset="0.3439" stop-color="#A03782"/>
<stop offset="0.7635" stop-color="#B95498"/>
<stop offset="1" stop-color="#C260A1"/>
</linearGradient>
<linearGradient id="paint2_linear_399_46" x1="43.4219" y1="58.9945" x2="77.2262" y2="58.9945" gradientUnits="userSpaceOnUse">
<stop offset="5.32779e-09" stop-color="#891F71"/>
<stop offset="0.3439" stop-color="#A03782"/>
<stop offset="0.7635" stop-color="#B95498"/>
<stop offset="1" stop-color="#C260A1"/>
</linearGradient>
<linearGradient id="paint3_linear_399_46" x1="48.7688" y1="69.1103" x2="71.88" y2="69.1103" gradientUnits="userSpaceOnUse">
<stop offset="5.32779e-09" stop-color="#891F71"/>
<stop offset="0.3439" stop-color="#A03782"/>
<stop offset="0.7635" stop-color="#B95498"/>
<stop offset="1" stop-color="#C260A1"/>
</linearGradient>
<linearGradient id="paint4_linear_399_46" x1="14.739" y1="68.4993" x2="122.262" y2="68.4993" gradientUnits="userSpaceOnUse">
<stop offset="5.32779e-09" stop-color="#891F71"/>
<stop offset="0.3439" stop-color="#A03782"/>
<stop offset="0.7635" stop-color="#B95498"/>
<stop offset="1" stop-color="#C260A1"/>
</linearGradient>
</defs>
</svg>
