<svg width="137" height="137" viewBox="0 0 137 137" fill="none" xmlns="http://www.w3.org/2000/svg">
<path d="M120.175 136H16.8242C8.08594 136 1 128.914 1 120.175V16.8243C1 8.08599 8.08594 1 16.8242 1H120.175C128.914 1 136 8.08599 136 16.8243V120.175C136 128.914 128.914 136 120.175 136Z" stroke="#891F71" stroke-miterlimit="10"/>
<path fill-rule="evenodd" clip-rule="evenodd" d="M41.3093 24.5981H71.0062H96.3561V110.517H100.703V21.9921V19.3862C100.703 19.3862 100.714 18.0777 99.9933 16.6028C99.3279 15.261 98.0527 13.7861 95.5909 13.0542C95.1363 12.9212 94.6705 12.8657 94.1937 12.8657H69.0545H43.2721C43.2721 12.8657 41.7862 12.8657 40.644 13.3204C39.1913 13.9746 36.6408 15.6159 36.3081 18.9648V24.587L36.3635 67.5687L36.419 110.55H38.5481H40.6772V67.5687V24.587L41.3093 24.5981Z" fill="url(#paint0_linear_399_96)"/>
<path fill-rule="evenodd" clip-rule="evenodd" d="M100.637 110.517V117.082C100.637 117.082 101.346 124.157 93.7834 124.146H42.5514C42.5514 124.146 36.3636 123.835 36.3525 116.139V110.517H40.6218H100.637Z" fill="url(#paint1_linear_399_96)"/>
<path fill-rule="evenodd" clip-rule="evenodd" d="M68.4998 113.633C70.5403 113.633 72.1925 115.286 72.1925 117.326C72.1925 119.366 70.5403 121.019 68.4998 121.019C66.4594 121.019 64.8071 119.366 64.8071 117.326C64.8071 115.297 66.4594 113.633 68.4998 113.633Z" fill="white"/>
<path fill-rule="evenodd" clip-rule="evenodd" d="M60.5599 17.9331H76.4396C77.0384 17.9331 77.5263 18.421 77.5263 19.0199C77.5263 19.6187 77.0384 20.1066 76.4396 20.1066H60.5599C59.961 20.1066 59.4731 19.6187 59.4731 19.0199C59.4731 18.421 59.961 17.9331 60.5599 17.9331Z" fill="white"/>
<defs>
<linearGradient id="paint0_linear_399_96" x1="36.3056" y1="61.6846" x2="100.696" y2="61.6846" gradientUnits="userSpaceOnUse">
<stop offset="5.32779e-09" stop-color="#891F71"/>
<stop offset="0.3439" stop-color="#A03782"/>
<stop offset="0.7635" stop-color="#B95498"/>
<stop offset="1" stop-color="#C260A1"/>
</linearGradient>
<linearGradient id="paint1_linear_399_96" x1="36.3602" y1="117.332" x2="100.66" y2="117.332" gradientUnits="userSpaceOnUse">
<stop offset="5.32779e-09" stop-color="#891F71"/>
<stop offset="0.3439" stop-color="#A03782"/>
<stop offset="0.7635" stop-color="#B95498"/>
<stop offset="1" stop-color="#C260A1"/>
</linearGradient>
</defs>
</svg>
